<svg xmlns="http://www.w3.org/2000/svg" width="124" height="124" viewBox="0 0 124 124">
  <g fill="none" fill-rule="evenodd">
    <rect width="124" height="124"/>
    <path fill="#F2824E" d="M1,59.2517527 L1,32.7711918 C1,28.3777356 1.61974952,24.2339069 2.85924949,20.3397068 C4.09874945,16.4455067 5.88802688,12.970682 8.22708269,9.91523263 C10.5661385,6.8597833 13.6349001,4.4433825 17.4333665,2.66602932 C21.2318328,0.888676135 25.4901139,0 30.2082097,0 C36.2457729,0 41.5036499,1.45782846 45.9818425,4.3734863 C50.4600351,7.28914413 53.8186794,11.2033142 56.0577752,16.1159975 C58.2968711,21.0286807 59.4164194,26.5804125 59.4164194,32.7711918 L59.4164194,59.2517527 C59.4164194,63.9647337 58.8666411,68.33822 57.7670852,72.3722116 C56.6675294,76.4062032 54.9882073,80.0707457 52.7291189,83.3658381 C50.4700305,86.6609305 47.4212614,89.2570636 43.5828109,91.1542384 C39.7443603,93.0514131 35.2861602,94 30.2082097,94 C25.2901949,94 20.9319539,93.1013384 17.1334875,91.3040153 C13.3350211,89.5066922 10.2762558,87.0104097 7.95719164,83.8151689 C5.63812745,80.6199281 3.89882954,76.9553856 2.73929791,72.8215424 C1.57976627,68.6876992 1,64.1644359 1,59.2517527 Z M16.5937054,58.8922881 C16.5937054,61.9277675 16.7936244,64.5937968 17.1934633,66.890376 C17.5933022,69.1869553 18.2730275,71.3038032 19.2326402,73.2409178 C20.1922528,75.1780324 21.5916876,76.6658172 23.4309455,77.7042702 C25.2702033,78.7427233 27.5292908,79.2619503 30.2082097,79.2619503 C35.2061919,79.2619503 38.7247719,77.5245379 40.7639488,74.0497132 C42.8031256,70.5748885 43.822714,65.5224137 43.822714,58.8922881 L43.822714,34.0892288 C43.822714,28.297854 42.7331536,23.6248138 40.5540335,20.0701083 C38.3749134,16.5154029 34.9263055,14.7380497 30.2082097,14.7380497 C25.6100655,14.7380497 22.1914455,16.4754621 19.9523496,19.9502868 C17.7132538,23.4251115 16.5937054,28.1380925 16.5937054,34.0892288 L16.5937054,58.8922881 Z M64.2923955,17.0745698 L64.2923955,1.55768005 L95,1.55768005 L95,92.3824092 L78.9264883,92.3824092 L78.9264883,17.0745698 L64.2923955,17.0745698 Z"/>
  </g>
</svg>
