<svg xmlns="http://www.w3.org/2000/svg" width="124" height="124" viewBox="0 0 124 124">
  <g fill="none" fill-rule="evenodd">
    <rect width="124" height="124"/>
    <path fill="#F2824E" d="M0,59.2517527 L0,32.7711918 C0,28.3777356 0.619370988,24.2339069 1.85811388,20.3397068 C3.09685677,16.4455067 4.88504133,12.970682 7.22266847,9.91523263 C9.5602956,6.8597833 12.6271828,4.4433825 16.4233291,2.66602932 C20.2194755,0.888676135 24.4751556,0 29.1903696,0 C35.2242451,0 40.4789107,1.45782846 44.954368,4.3734863 C49.4298254,7.28914413 52.7864182,11.2033142 55.0241465,16.1159975 C57.2618747,21.0286807 58.3807393,26.5804125 58.3807393,32.7711918 L58.3807393,59.2517527 C58.3807393,63.9647337 57.8312967,68.33822 56.7324125,72.3722116 C55.6335282,76.4062032 53.9552318,80.0707457 51.6975232,83.3658381 C49.4398147,86.6609305 46.3929078,89.2570636 42.5568017,91.1542384 C38.7206957,93.0514131 34.2652186,94 29.1903696,94 C24.2753587,94 19.9197797,93.1013384 16.1236333,91.3040153 C12.327487,89.5066922 9.27058998,87.0104097 6.95294226,83.8151689 C4.63529453,80.6199281 2.89705897,76.9553856 1.73823556,72.8215424 C0.57941216,68.6876992 0,64.1644359 0,59.2517527 Z M15.5841809,58.8922881 C15.5841809,61.9277675 15.7839778,64.5937968 16.1835725,66.890376 C16.5831672,69.1869553 17.2624773,71.3038032 18.2215038,73.2409178 C19.1805304,75.1780324 20.5791104,76.6658172 22.4172449,77.7042702 C24.2553793,78.7427233 26.513087,79.2619503 29.1903696,79.2619503 C34.1852991,79.2619503 37.70173,77.5245379 39.7396613,74.0497132 C41.7775927,70.5748885 42.7965584,65.5224137 42.7965584,58.8922881 L42.7965584,34.0892288 C42.7965584,28.297854 41.7076634,23.6248138 39.5298743,20.0701083 C37.3520852,16.5154029 33.9055837,14.7380497 29.1903696,14.7380497 C24.5950339,14.7380497 21.178502,16.4754621 18.9407737,19.9502868 C16.7030455,23.4251115 15.5841809,28.1380925 15.5841809,34.0892288 L15.5841809,58.8922881 Z M64.1996866,66.1414914 L79.9037458,66.1414914 C81.1824476,74.888464 85.7178441,79.2619503 93.5099346,79.2619503 C97.985392,79.2619503 101.431894,77.9139579 103.849439,75.2179732 C106.266985,72.5219885 107.475758,69.2768215 107.475758,65.4824729 C107.475758,61.6082427 106.237015,58.2132996 103.75953,55.2976418 C101.282046,52.381984 97.9454322,50.9241555 93.7496912,50.9241555 L88.5949237,50.9241555 L88.5949237,35.9464627 L93.5099346,35.9464627 C97.2261623,35.9464627 100.123221,34.8381134 102.201112,32.6214149 C104.279003,30.4047164 105.317949,27.7985978 105.317949,24.8030593 C105.317949,22.007223 104.368912,19.5408968 102.470839,17.404079 C100.572765,15.2672612 97.9454322,14.1988528 94.5888394,14.1988528 C90.99249,14.1988528 88.2652583,15.4170381 86.4071444,17.8534098 C84.5490305,20.2897815 83.5200747,23.1654985 83.3202778,26.4805609 L67.7360969,26.4805609 C67.8959349,21.4081153 68.9748398,16.9148074 70.9728114,13.0006373 C72.970783,9.08646727 76.0176908,5.94115178 80.1135329,3.56469089 C84.209375,1.18822999 89.1343761,0 94.8885352,0 C99.1242359,0 102.930372,0.659018483 106.306945,1.97705545 C109.683517,3.29509242 112.400759,5.08243012 114.45867,7.33906947 C116.516581,9.59570882 118.084989,12.1618866 119.163894,15.0376036 C120.242799,17.9133206 120.782251,20.9887399 120.782251,24.2638623 C120.782251,33.2105372 116.766328,39.6409606 108.734481,43.5551307 C113.649491,45.6320377 117.255831,48.4378585 119.553498,51.972594 C121.851166,55.5073295 123,59.8908012 123,65.1230083 C123,73.7501593 120.252789,80.7197787 114.758366,86.0318674 C109.263943,91.3439561 102.141173,94 93.3900562,94 C88.9545586,94 84.9286449,93.2710853 81.312316,91.8132569 C77.6959872,90.3554284 74.6990293,88.3384321 72.3214424,85.762269 C69.9438555,83.1861058 68.0657623,80.2404926 66.6871616,76.9254302 C65.308561,73.6103678 64.479403,70.0157216 64.1996866,66.1414914 Z"/>
  </g>
</svg>
