<svg xmlns="http://www.w3.org/2000/svg" width="124" height="124" viewBox="0 0 124 124">
  <g fill="none" fill-rule="evenodd">
    <path fill="#F2824E" d="M1,59.2959898 L1,32.8491407 C1,28.4612776 1.62021706,24.3227244 2.86065209,20.4334819 C4.10108712,16.5442393 5.89171437,13.0738383 8.23253474,10.0222788 C10.5733551,6.97071929 13.6444317,4.55739475 17.4457636,2.78230426 C21.2470956,1.00721378 25.5085891,0.119669001 30.2302441,0.119669001 C36.272362,0.119669001 41.5342055,1.57564154 46.0157764,4.48758752 C50.4973473,7.39953351 53.8585253,11.3087206 56.0993103,16.2151496 C58.3400953,21.1215786 59.4604883,26.6662426 59.4604883,32.8491407 L59.4604883,59.2959898 C59.4604883,64.0029708 58.9102952,68.3708893 57.8099098,72.3997454 C56.7095245,76.4286014 55.0289355,80.0884787 52.7681429,83.3793762 C50.5073502,86.6702737 47.4562812,89.2631018 43.614935,91.1578612 C39.7735887,93.0526207 35.3120254,94 30.2302441,94 C25.3085193,94 20.9469904,93.1024825 17.1456585,91.3074475 C13.3443265,89.5124125 10.2832538,87.019308 7.96244008,83.8281349 C5.64162642,80.6369619 3.9010164,76.9770847 2.74061002,72.8485041 C1.58020365,68.7199236 1,64.2024188 1,59.2959898 Z M16.6054692,58.9369828 C16.6054692,61.9685978 16.805539,64.6312331 17.2056795,66.9248886 C17.60582,69.2185441 18.2860581,71.3326971 19.2463947,73.2673456 C20.2067313,75.2019942 21.6072218,76.6878849 23.4478672,77.7250159 C25.2885126,78.7621469 27.5493043,79.2807129 30.2302441,79.2807129 C35.2319968,79.2807129 38.7532311,77.5455124 40.7939463,74.0751114 C42.8346615,70.6047104 43.8550191,65.5586678 43.8550191,58.9369828 L43.8550191,34.1654997 C43.8550191,28.3814977 42.7646367,23.7144067 40.5838727,20.1642266 C38.4031087,16.6140466 34.9518992,14.8389561 30.2302441,14.8389561 C25.6286311,14.8389561 22.2074321,16.5741566 19.9666471,20.0445576 C17.7258621,23.5149586 16.6054692,28.2219396 16.6054692,34.1654997 L16.6054692,58.9369828 Z M63.7399324,26.5665181 C66.380858,8.85550605 76.0042303,0 92.6100503,0 C96.6514664,0 100.362768,0.518565974 103.743952,1.55569701 C107.125137,2.59282804 110.116186,4.12858052 112.717097,6.16295353 C115.318008,8.19732654 117.348721,10.8599618 118.809232,14.1508593 C120.269744,17.4417568 121,21.2213031 121,25.4894971 C121,37.1372802 115.758163,47.9074902 105.274489,57.8001273 L84.8673368,76.9471674 L120.519832,76.9471674 L120.519832,92.3844685 L64.1000586,92.3844685 L64.1000586,76.7078294 L87.5682834,54.7485678 C93.690429,49.0044558 98.0919713,43.9384678 100.772911,39.5506047 C103.453851,35.1627417 104.79432,30.8746022 104.79432,26.6861871 C104.79432,22.6972201 103.733949,19.4362399 101.613206,16.9032463 C99.4924627,14.3702528 96.4914109,13.1037556 92.6100503,13.1037556 C89.1288303,13.1037556 86.2378168,14.2206665 83.9370108,16.4544876 C81.6362047,18.6883086 80.0256397,22.0589861 79.1053174,26.5665181 L63.7399324,26.5665181 Z"/>
    <rect width="124" height="124"/>
  </g>
</svg>
