<?xml version="1.0" standalone="no"?>
<!DOCTYPE svg PUBLIC "-//W3C//DTD SVG 20010904//EN"
 "http://www.w3.org/TR/2001/REC-SVG-20010904/DTD/svg10.dtd">
<svg version="1.0" xmlns="http://www.w3.org/2000/svg"
 width="700.000000pt" height="700.000000pt" viewBox="0 0 700.000000 700.000000"
 preserveAspectRatio="xMidYMid meet">
<metadata>
Created by potrace 1.11, written by Peter Selinger 2001-2013
</metadata>
<g transform="translate(0.000000,700.000000) scale(0.100000,-0.100000)"
fill="#000000" stroke="none">
<path d="M1062 5158 c36 -51 89 -129 119 -173 29 -44 56 -82 59 -85 3 -3 10
-13 15 -22 6 -10 48 -73 94 -140 47 -68 117 -170 156 -228 39 -58 105 -154
147 -215 160 -234 243 -357 253 -373 6 -9 18 -25 28 -36 9 -11 17 -25 17 -32
0 -7 4 -14 8 -16 4 -1 109 -151 232 -333 124 -181 244 -357 268 -390 23 -33
45 -67 49 -75 4 -8 12 -20 17 -26 6 -6 73 -103 149 -215 76 -112 229 -337 340
-500 111 -163 240 -353 287 -422 l85 -126 1308 -1 1309 0 -44 63 c-76 107
-211 301 -363 522 -38 55 -71 102 -74 105 -3 3 -10 13 -16 22 -13 23 -338 492
-345 498 -3 3 -25 34 -49 70 -56 83 -272 395 -312 451 -6 9 -64 92 -128 185
-64 93 -148 214 -186 269 -38 55 -110 159 -160 230 -50 72 -116 166 -145 210
-30 44 -59 85 -65 92 -5 6 -129 185 -275 397 l-265 385 -1288 1 -1288 0 63
-92z"/>
</g>
</svg>
