<svg width="110" height="28" viewBox="0 0 110 28" fill="none" xmlns="http://www.w3.org/2000/svg">
<g opacity="1">
<path fill-rule="evenodd" clip-rule="evenodd" d="M74.7882 3.97205H72.3383H72.1942C71.8339 3.97205 71.6177 4.20995 71.6177 4.49832V21.1445C71.6177 21.4328 71.8339 21.7212 72.1942 21.7212H74.5721C74.9323 21.7212 75.1485 21.5049 75.1485 21.2165V15.8817H75.2206L79.2557 21.577C79.3278 21.7212 79.4719 21.7933 79.6881 21.7933H82.4983C82.9306 21.7933 83.1468 21.2886 82.9306 20.9282L79.1837 15.7375C79.0396 15.5212 79.1116 15.2329 79.2557 15.0887L82.4983 11.1236C82.7865 10.7632 82.4983 10.2585 82.066 10.2585H79.4719C79.3278 10.2585 79.1837 10.3306 79.1116 10.4748L75.2926 15.2329V4.49111C75.2926 4.18832 75.0765 3.97205 74.7882 3.97205ZM34.8256 4.92365C34.5301 4.92365 34.2852 5.16876 34.2996 5.47155L34.2852 5.42829V21.2886C34.2852 21.577 34.5374 21.8654 34.8256 21.8654H39.2571C44.3803 21.8654 46.8086 19.9189 46.8086 16.7468C46.8086 14.7282 45.7638 13.2864 43.6165 12.6375C45.1441 12.0608 46.1385 10.9794 46.1385 9.24919C46.1385 6.36549 43.9912 4.92365 39.1634 4.92365H34.8256ZM39.8984 11.9815C41.426 11.9815 42.4636 11.4048 42.4636 10.0567C42.4636 8.75901 41.6565 8.18227 39.0913 8.18227H38.5005C38.2122 8.18227 37.96 8.47064 37.96 8.75901V11.4192C37.96 11.722 38.205 11.9671 38.5005 11.9671H39.9056L39.8984 11.9815ZM39.3219 18.7581C42.3699 18.7581 43.1409 18.1453 43.1409 16.6386C43.1409 15.2256 42.0745 14.5479 40.1578 14.5479H38.5005C38.2122 14.5479 37.96 14.793 37.96 15.0958V18.2102C37.96 18.513 38.205 18.7581 38.5005 18.7581H39.3219ZM55.0519 18.7727V17.8644C55.0519 17.5904 54.8645 17.3597 54.5979 17.3165C54.3241 17.2732 54.0431 17.2588 53.8053 17.2588C52.9046 17.2588 52.0039 17.5327 52.0039 18.4267C52.0039 19.1836 52.6524 19.5802 53.4594 19.5802C53.8918 19.5802 54.3241 19.4504 54.7564 19.2702C54.9006 19.126 55.0447 18.9818 55.0447 18.7655L55.0519 18.7727ZM48.4875 18.6934C48.4875 19.9189 48.9919 20.8561 49.8566 21.4329L49.4963 21.0724C50.2889 21.5771 51.1536 21.8654 52.1624 21.8654C53.4594 21.8654 54.6123 21.4329 55.3329 20.9282C55.9814 21.5771 56.8461 21.8654 57.7828 21.8654C58.2152 21.8654 58.7196 21.7933 59.0798 21.6492C59.3681 21.5771 59.5122 21.3608 59.5122 21.1445V19.5585C59.5122 19.2701 59.224 19.0538 58.9357 19.0538C58.5034 19.0538 58.2872 18.6213 58.2872 18.1166V14.2236C58.2872 12.7818 57.9269 11.7004 57.0623 11.0516C56.1255 10.3306 54.7564 9.97018 53.2432 9.97018C51.8021 9.97018 50.5051 10.2586 49.6404 10.6911C49.4242 10.7632 49.3522 10.9795 49.3522 11.1958V13.0702C49.3522 13.4306 49.7845 13.719 50.1448 13.5748C50.8654 13.2864 51.8021 13.0702 52.7388 13.0702C53.6035 13.0702 54.18 13.2143 54.5403 13.5748C54.7564 13.7911 54.9726 14.2236 54.9726 14.8004V15.2329C54.3241 15.0887 53.6756 15.0167 53.0271 15.0167C51.8021 15.0167 50.7213 15.2329 49.8566 15.8818C49.064 16.4585 48.4875 17.3957 48.4875 18.6934ZM62.4665 10.1863H64.8516C65.1398 10.1863 65.392 10.4026 65.392 10.7631V11.7724H65.4497C66.2423 10.6189 67.3232 10.0422 68.7355 10.0422H69.0237C69.3119 10.0422 69.5281 10.2584 69.5281 10.5468V12.861C69.5281 13.1782 69.2399 13.4377 68.8796 13.4017H68.5193C67.3664 13.4017 66.3576 13.7621 65.565 14.6272C65.4929 14.7282 65.4209 14.8651 65.4209 14.9877V21.1876C65.4209 21.476 65.2047 21.6923 64.9165 21.6923H62.6899C62.3801 21.6923 62.1423 21.476 62.1423 21.1588V10.9145C62.1423 10.6117 62.3873 10.3666 62.6827 10.3666L62.4665 10.1863ZM98.7831 10.3162H101.161C101.449 10.3162 101.665 10.5325 101.665 10.8209V11.3255H101.737C102.602 10.6046 103.827 9.95575 105.268 9.95575C106.421 9.95575 107.502 10.3883 108.223 11.1092C108.871 11.8302 109.231 12.8394 109.231 14.512V21.1445C109.231 21.4329 108.943 21.6491 108.655 21.6491H106.205C105.845 21.6491 105.629 21.4329 105.629 21.0724V15.0238C105.629 14.1587 105.484 13.7262 105.196 13.3946C104.908 13.0341 104.476 12.8899 104.007 12.8899C103.215 12.8899 102.436 13.2504 101.846 13.6829C101.701 13.7911 101.629 13.9569 101.629 14.1371V21.0868C101.629 21.3752 101.356 21.6636 101.053 21.6636H98.7183C98.4301 21.6636 98.1418 21.4473 98.1418 21.1589V10.9146C98.1418 10.6262 98.358 10.3595 98.6679 10.3595L98.7831 10.3162ZM88.6231 20.8776L86.4902 25.5132L86.692 25.6213C86.4758 25.9818 86.764 26.4143 87.1243 26.4143H89.286C89.495 26.4143 89.6967 26.2701 89.7688 26.0539L96.2539 11.2028C96.4124 10.8424 96.1242 10.4098 95.7639 10.4098H93.4581C93.2419 10.4098 93.0257 10.4819 92.9537 10.6982L91.8656 13.1565L90.3524 16.9053H90.2804C90.02 16.2105 89.7334 15.4896 89.4365 14.7425C89.2404 14.2493 89.0398 13.7446 88.8392 13.2286L87.8305 10.7054C87.7584 10.4891 87.5422 10.3449 87.3261 10.3449H84.8761C84.5159 10.3449 84.2276 10.7558 84.4438 11.1163L88.6231 20.4162C88.6951 20.5676 88.6951 20.7334 88.6231 20.8776Z" fill="#F0814D"/>
<mask id="mask0" mask-type="alpha" maskUnits="userSpaceOnUse" x="0" y="0" width="22" height="28">
<path fill-rule="evenodd" clip-rule="evenodd" d="M0 28V0H21.8768V28H0Z" fill="white"/>
</mask>
<g mask="url(#mask0)">
<path d="M19.549 15.1247C19.4265 15.1247 19.304 15.1679 19.2175 15.2544L18.5978 15.86C18.4537 16.033 18.4537 16.3142 18.5978 16.4944C20.111 18.167 20.5434 20.5604 19.7507 22.5862C18.8861 24.8211 16.8685 26.1908 14.4906 26.1908H2.44993C2.08964 26.1908 1.80142 25.8304 1.80142 25.4699V2.40035C1.80142 1.9678 2.08964 1.67943 2.44993 1.67943H14.4113C16.6451 1.67943 18.6843 2.97709 19.6138 4.99568C20.6442 7.30264 20.2191 9.82587 18.4753 11.5561L17.4161 12.6375L16.2632 13.863L11.5291 18.7725C11.1183 19.2051 10.5707 19.4358 10.0015 19.4358C9.42502 19.4358 8.899 19.2195 8.48828 18.8014C7.65242 17.8498 7.64522 16.4944 8.48828 15.6654L9.46825 14.584C9.62677 14.4398 10.0015 14.0072 10.0231 13.9351L10.0951 13.863L10.0231 13.791L9.51869 13.2142L8.58195 12.2049C7.71727 11.3398 7.71727 9.97006 8.58195 9.03285C9.01429 8.6003 9.51869 8.38402 10.0951 8.38402C10.6716 8.38402 11.248 8.6003 11.6083 9.03285L13.9862 11.4119L15.2112 12.6375C15.4273 12.7817 15.7156 12.7817 15.8597 12.6375L16.5082 11.9886C16.5802 11.9166 16.6523 11.7724 16.6523 11.6282C16.6523 11.484 16.6523 11.3398 16.5082 11.2677L16.0038 10.7631L15.0671 9.89796L12.8333 7.6631C12.1848 6.94218 11.176 6.50962 10.2393 6.50962C9.23046 6.50962 8.29373 6.87008 7.5011 7.51891C6.70848 8.23984 6.20408 9.32122 6.13202 10.4026C6.05997 11.5561 6.49231 12.6375 7.28493 13.4305L7.64521 13.7189L7.28493 14.0793C6.4851 15.0237 6.05276 16.033 6.05276 17.1144C6.05276 18.1958 6.4851 19.2339 7.23449 19.9981C7.81095 20.6325 8.67562 21.0362 9.61236 21.1372L9.98706 21.1876C11.0679 21.1876 12.0623 20.7551 12.7973 19.9765L17.5314 15.1463L19.621 12.8393C21.7827 10.6045 22.4312 7.36031 21.3504 4.54871C20.1759 1.75873 17.5098 -0.0435791 14.4113 -0.0435791H1.59966C0.720567 0.0285133 0 0.749437 0 1.68664V26.3422C0 27.2578 0.720567 28.0004 1.62128 28.0004H14.2816C17.308 28.0004 20.0462 26.2197 21.2207 23.473C22.4168 20.6758 21.898 17.5398 19.8732 15.2761C19.7868 15.1823 19.6715 15.1319 19.5418 15.1175" fill="#F0814D"/>
</g>
</g>
</svg>
