<svg width="115" height="20" viewBox="0 0 115 20" fill="none" xmlns="http://www.w3.org/2000/svg">
<g opacity="1">
<path fill-rule="evenodd" clip-rule="evenodd" d="M12.3483 19.5056V0H10.5519V7.41213C9.70095 5.55909 7.90453 4.48629 5.91901 4.58382C2.23161 4.58382 0.246094 7.70471 0.246094 12.2885C0.246094 16.8723 2.23161 19.8957 5.91901 19.8957C7.90453 19.9932 9.70095 18.8229 10.5519 17.0674V19.6031L12.3483 19.5056ZM51.7751 19.5056H53.5715V9.7528C53.5715 6.04673 51.6806 4.48629 48.9387 4.48629C47.0477 4.38876 45.2513 5.55909 44.5894 7.41213V0H42.793V19.5056H44.5894V11.0207C44.5894 8.19235 46.2913 6.14426 48.5605 6.14426C50.8296 6.14426 51.6806 7.60718 51.6806 10.0454L51.7751 19.5056ZM70.0229 0H66.5246V6.82696C65.6737 5.36404 64.0664 4.48629 62.3645 4.48629C58.5825 4.48629 56.7861 7.89977 56.7861 12.191C56.7861 16.4822 58.6771 19.7982 62.459 19.7982C64.1609 19.8957 65.6737 18.9204 66.5246 17.4575V19.4081L70.0229 19.5056V0ZM101.791 0.0974815H105.29V7.02197C106.046 5.46152 107.748 4.48624 109.45 4.58377C112.57 4.58377 114.083 6.63186 114.083 9.94781V19.5056H110.584V10.2404C110.584 8.48489 110.017 7.50961 108.315 7.50961C106.424 7.50961 105.29 8.97253 105.29 11.1181V19.6031H101.791V0.0974815ZM91.3909 8.875C91.3909 9.85028 92.0528 10.2404 92.9982 10.4354L95.8347 11.0206C98.0093 11.5083 99.6166 12.7761 99.6166 15.3118C99.6166 17.8476 97.5366 19.8957 93.7546 19.8957C89.9727 19.8957 87.8926 18.1402 87.7035 14.9217H91.2018V15.1168C91.3909 16.4822 92.5255 17.3599 93.7546 17.1649C95.0783 17.1649 96.2129 16.5797 96.2129 15.5069C96.2129 14.4341 95.362 14.044 94.1328 13.7514L91.6746 13.1662C89.2163 12.5811 88.0817 11.3132 88.0817 8.97253C88.0817 6.4368 90.0672 4.48624 93.5655 4.48624C96.6856 4.48624 98.9548 6.14422 99.1439 9.36264H95.6456V9.07006C95.4565 7.99725 94.511 7.21702 93.471 7.31455C92.2419 7.31455 91.3909 7.89972 91.3909 8.875ZM80.8961 10.5331L77.0196 10.9232C74.0886 11.2158 72.3867 13.1663 72.3867 15.507C72.2922 17.9452 74.1831 19.9933 76.5469 19.9933H76.8305C78.6269 20.0908 80.3288 19.1155 81.0852 17.36H81.1797V19.6032H86.6636V16.7748H84.2998V9.6553C84.2998 6.33935 82.2198 4.68138 78.816 4.68138C75.4123 4.68138 72.954 6.33935 72.8595 9.55778H76.3578C76.3578 8.19238 77.3978 7.50969 78.7215 7.50969C79.7615 7.31463 80.8015 8.09486 80.8961 9.16766V9.6553V10.5331ZM75.9795 15.8971C75.9795 16.6773 76.8304 17.1649 78.0596 17.1649C78.1142 17.1085 78.1373 17.0848 78.1653 17.0747C78.1857 17.0674 78.2088 17.0674 78.2487 17.0674C79.856 16.8723 81.0851 15.4094 80.896 13.7514V13.1663L76.7359 13.5564C76.1686 13.6539 75.9795 13.9465 75.9795 14.5317V15.8971ZM63.31 17.0676C65.5792 17.0676 66.5246 15.5071 66.5246 13.264H66.4301V11.1184C66.4301 8.77769 65.3901 7.31477 63.2154 7.31477H62.9318C61.5136 7.31477 60.379 8.58263 60.379 10.1431V14.2393V14.5318C60.5681 16.0923 61.7972 17.1651 63.31 17.0676ZM31.3526 8.68007C31.3526 10.143 32.2036 10.7282 33.6218 11.0207L36.08 11.4109C38.7274 11.996 40.0511 13.1664 40.0511 15.6046C40.0511 18.0428 38.0656 19.7983 34.7564 19.7983C31.7308 19.7983 29.3671 18.1403 29.2725 15.0194H31.069C31.1635 17.165 32.8654 18.2378 34.7564 18.2378C36.6473 18.2378 38.2547 17.3601 38.2547 15.7021C38.2547 14.2392 37.4983 13.654 35.4182 13.1664L33.0545 12.6787C30.8799 12.1911 29.5562 11.0207 29.5562 8.68007C29.5562 6.3394 31.5417 4.5839 34.4727 4.5839C37.0255 4.5839 39.4838 5.94929 39.5783 9.16771H37.7819C37.6874 7.11962 36.3637 6.24187 34.4727 6.24187C32.5817 6.24187 31.3526 7.21715 31.3526 8.68007ZM24.0723 12.4837V13.1664C24.0723 16.1898 22.465 18.2379 20.0067 18.2379C18.2103 18.2379 17.0757 17.5552 17.0757 15.9947V14.4343C17.0757 13.5565 17.3593 13.0689 18.2103 12.9714L24.0723 12.4837ZM18.683 11.3132L24.0723 10.8256L24.1668 9.5577C24.1668 6.92444 22.7486 6.24174 20.7631 6.24174C18.7775 6.24174 17.4539 7.21702 17.4539 9.16758H15.6574C15.6574 6.4368 17.7375 4.48624 20.7631 4.48624C23.7886 4.48624 25.8687 6.04669 25.8687 9.46017V17.75H27.9488V19.408H24.3559L24.2614 16.5797H24.1668C23.505 18.6278 21.614 19.8957 19.6285 19.7981C18.3993 19.8957 17.1702 19.408 16.2247 18.5303C15.4683 17.6525 15.0901 16.5797 15.0901 15.4094V15.1168C14.9956 13.0687 16.6975 11.3132 18.683 11.3132ZM6.2026 18.2377C8.94451 18.2377 10.5518 16.1896 10.5518 13.4588L10.4573 11.0206C10.4573 8.28986 8.84996 6.24178 6.2026 6.24178H5.91895C3.93343 6.24178 2.23156 7.89975 2.23156 10.0454V14.4341V14.7267C2.32611 16.8723 4.12253 18.4328 6.2026 18.2377Z" fill="#F0814D"/>
</g>
</svg>
