<svg width="107" height="40" viewBox="0 0 107 40" fill="none" xmlns="http://www.w3.org/2000/svg">
<g opacity="1">
<path fill-rule="evenodd" clip-rule="evenodd" d="M48.9417 32.3963V18.4123H45.9419V24.0059H39.7116V18.4123H36.7367V32.3963H39.7116V26.5697H45.9419V32.3963H48.9417ZM57.4756 18.4123C53.2389 18.4123 50.3261 21.0605 50.3261 25.4043C50.3261 29.7481 53.2389 32.3963 57.4756 32.3963C61.7123 32.3963 64.6251 29.7481 64.6251 25.4043C64.6251 21.0605 61.7123 18.4123 57.4756 18.4123ZM61.8637 25.4135C61.8637 27.8213 60.1751 29.5994 57.5948 29.5994C55.0714 29.5994 53.3259 27.8398 53.3259 25.4135C53.3259 23.0612 55.0714 21.209 57.5948 21.209C60.1751 21.209 61.8637 23.0427 61.8637 25.4135ZM65.7864 18.4123V32.3963H75.2472L75.478 29.483H68.6708V18.4123H65.7864ZM86.554 29.483H79.6315V26.5697H85.8617V23.8894H79.6315V21.3257H86.6694V21.0926V18.4123H76.6317V32.3963H86.554V29.483ZM94.1688 32.3963V18.4123H88.6308L88.8615 21.3257H90.7075V32.3963H94.1688ZM106.061 23.5306C106.247 20.7039 104.128 18.4123 101.321 18.4123H100.629C97.9533 18.4123 95.784 20.6046 95.784 23.3057V23.5399C95.784 25.9855 97.7456 27.9681 100.17 27.9681H100.556L97.6301 32.3963H101.091L105.142 26.5511C105.581 25.9178 105.978 24.7777 106.029 24.0104L106.061 23.5306ZM100.918 25.4042C102.097 25.4042 103.053 24.4651 103.053 23.3066C103.053 22.1481 102.097 21.209 100.918 21.209C99.7394 21.209 98.7838 22.1481 98.7838 23.3066C98.7838 24.4651 99.7394 25.4042 100.918 25.4042ZM25.7084 13.443C28.8671 16.2433 30.8644 20.3507 30.8644 24.938C30.8644 33.2085 24.0254 40 15.7155 40C7.21011 40 0.332031 33.2472 0.332031 24.938C0.332031 16.4346 7.17096 9.64312 15.7155 9.64312C19.3191 9.64312 22.6342 10.9157 25.2384 13.043L32.6647 2.77938V1.40359C32.6647 1.40359 32.6474 0.912756 33.0122 0.510949C33.5037 -0.0297644 33.8926 0.000301121 33.9632 0.000301121C34.0423 0.000301121 34.1323 0.052741 34.1568 0.276485C34.2034 0.699034 34.0172 2.15453 33.5508 2.67101C33.3217 2.92505 30.138 7.26638 27.084 11.4902L25.7084 13.443ZM23.9868 15.9178L20.7606 20.4648C20.6957 20.6438 20.635 20.8459 20.635 20.9771C20.635 21.2589 20.5492 22.0098 20.3124 22.1979C20.0757 22.3855 20.3124 22.7617 20.3124 22.7617C20.3124 22.7617 23.0591 26.0955 23.8512 28.9118C23.8512 28.9118 24.2244 29.7127 24.5038 30.0879C24.6272 30.2535 24.7866 31.4296 24.8806 32.5832C26.6922 30.4813 27.7914 27.763 27.7914 24.8134C27.7914 21.3037 26.3278 18.1452 23.9868 15.9178ZM23.4794 15.4615C21.3683 13.6661 18.6422 12.5856 15.6709 12.5856C8.80343 12.5856 3.33174 18.0155 3.33174 24.8136C3.33174 31.1947 8.4577 36.4463 14.9605 36.805C15.379 34.9718 15.8713 32.3498 15.5545 32.1469C15.0418 31.8183 14.6689 30.4094 14.6223 30.2218C14.5757 30.034 14.4359 29.4692 13.1307 28.9064C11.8256 28.3431 10.5671 27.3546 10.2406 26.885C9.91453 26.4158 10.1483 25.6607 10.194 25.4715C10.2399 25.2827 10.7999 24.7566 11.0332 24.5219C11.2663 24.2872 10.9864 24.1714 10.9864 24.1714H10.1474C9.96414 24.1714 9.5414 23.8414 9.5414 23.8414L8.52356 23.0998L8.23628 23.042L7.63033 23.5582C7.58487 23.568 7.54126 23.5727 7.49972 23.5727C6.94477 23.5727 6.73248 22.7602 6.73248 22.7602C6.73248 22.7602 7.16444 22.2908 7.25766 22.0563C7.35089 21.8216 7.30428 21.3991 6.97776 21.0705C6.65171 20.7421 6.57856 20.3911 6.74494 20.1247C7.24866 19.3176 8.89692 18.6967 8.89692 18.6967C8.89692 18.6967 9.12443 18.5732 9.47933 18.5732C9.78761 18.5732 10.1917 18.6666 10.6255 19.0157C11.5575 19.7667 11.9867 20.771 12.8566 21.084C13.0717 21.1607 13.2482 21.1928 13.3961 21.1928C13.8484 21.1928 14.0337 20.8982 14.221 20.7099C14.4698 20.4594 16.1464 18.833 16.1464 18.833C16.1464 18.833 16.6026 18.4865 17.1587 18.4865C17.3131 18.4865 17.4751 18.513 17.6371 18.5811C18.3579 18.8852 19.6102 19.5963 20.1649 20.0391L23.4794 15.4615Z" fill="#2D3144"/>
</g>
</svg>
