<svg width="117" height="40" viewBox="0 0 117 40" fill="none" xmlns="http://www.w3.org/2000/svg">
<path d="M48.5349 29.056H52.7282C54.3609 29.056 55.1342 28.2823 55.1342 26.6491V17.0216H52.6595V26.4427C52.6595 26.7007 52.5736 26.7866 52.3158 26.7866H48.9474C48.6896 26.7866 48.6037 26.7007 48.6037 26.4427V17.0216H46.1289V26.6491C46.1289 28.2823 46.9023 29.056 48.5349 29.056Z" fill="#2D3144" fill-opacity="1"/>
<path fill-rule="evenodd" clip-rule="evenodd" d="M79.5346 29.0558L77.4907 24.6719C78.6243 24.4656 79.1568 23.6919 79.1568 22.3338V19.4283C79.1568 17.7951 78.3839 17.0215 76.7522 17.0215H70.4146V29.0558H72.8878V24.8094H74.8801L76.8724 29.0558H79.5346ZM63.9338 29.0559H61.4605V19.2565H58.1973V17.0216H67.197V19.2565H63.9338V29.0559ZM72.8878 22.6088H76.34C76.5977 22.6088 76.6836 22.5229 76.6836 22.265V19.6003C76.6836 19.3424 76.5977 19.2564 76.34 19.2564H72.8878V22.6088ZM89.4847 29.0558H85.2939C83.6623 29.0558 82.8894 28.2822 82.8894 26.649V17.0215H85.3626V26.4426C85.3626 26.7006 85.4485 26.7865 85.7062 26.7865H89.0725C89.3301 26.7865 89.416 26.7006 89.416 26.4426V17.0215H91.8892V26.649C91.8892 28.2822 91.1163 29.0558 89.4847 29.0558ZM97.9578 29.0558H101.908C103.54 29.0558 104.313 28.2822 104.313 26.649V24.6547C104.313 23.1074 103.351 22.5057 101.839 22.1791L98.6448 21.4914C98.1983 21.3882 98.0609 21.2851 98.0609 20.9069V19.6003C98.0609 19.3424 98.1468 19.2564 98.4044 19.2564H101.358C101.616 19.2564 101.702 19.3424 101.702 19.6003V20.8037H104.107V19.4283C104.107 17.7951 103.334 17.0215 101.702 17.0215H97.9922C96.3606 17.0215 95.5877 17.7951 95.5877 19.4283V21.2851C95.5877 22.8323 96.5495 23.4341 98.0609 23.7607L101.255 24.4484C101.702 24.5516 101.839 24.6547 101.839 25.0329V26.4771C101.839 26.7349 101.754 26.8208 101.496 26.8208H98.3014C98.0437 26.8208 97.9578 26.7349 97.9578 26.4771V25.1361H95.5533V26.649C95.5533 28.2822 96.3262 29.0558 97.9578 29.0558ZM112.906 29.0558H110.433V19.2564H107.169V17.0215H116.169V19.2564H112.906V29.0558Z" fill="#2D3144" fill-opacity="1"/>
<path opacity="0.6" fill-rule="evenodd" clip-rule="evenodd" d="M5.56439 9.91129C-2.8862 22.0625 1.06801 36.3251 7.1102 38.9732C13.1524 41.6212 25.0413 39.3403 32.4009 29.8736C39.7606 20.4069 38.0155 9.96029 31.8309 4.00352C25.6463 -1.95323 14.015 -2.24 5.56439 9.91129ZM29.9352 27.6927C20.8504 38.745 14.623 40.517 8.8804 38.3838C3.13771 36.2507 -1.07616 26.2063 7.37443 14.055C15.825 1.90378 27.0509 1.11169 31.5141 5.10504C35.9774 9.09839 39.0199 16.6403 29.9352 27.6927Z" fill="#2D3144" fill-opacity="1"/>
<path opacity="0.2" fill-rule="evenodd" clip-rule="evenodd" d="M11.1866 39.1246C13.499 39.6266 15.9849 39.5496 18.7196 38.4896C23.6395 37.2964 28.8633 34.5707 32.3248 29.9504C38.965 21.0873 37.9054 10.7715 31.7209 4.8147C25.5362 -1.14206 14.3261 0.34061 5.8755 12.4918C-2.5751 24.6431 2.50808 35.6564 7.53404 38.1806C8.49134 38.6613 9.74245 38.9819 11.1866 39.1246ZM30.6678 28.6597C26.1663 34.1361 22.237 37.126 18.7195 38.4895C15.9993 39.1492 13.3719 39.3405 11.1865 39.1245C10.4705 38.9691 9.77115 38.7581 9.08615 38.5037C3.34351 36.3706 -1.12119 26.3292 6.95135 14.6241C15.0239 2.91903 26.4794 0.379968 32.0919 5.55684C35.54 8.73728 39.7526 17.6073 30.6678 28.6597Z" fill="#2D3144" fill-opacity="1"/>
<path opacity="0.8" fill-rule="evenodd" clip-rule="evenodd" d="M0.342949 16.4066C-1.3833 23.7978 3.44309 35.0918 14.0125 38.1023C24.5818 41.1128 33.3508 35.1219 35.9463 27.6949C38.5418 20.2679 33.3039 10.9688 23.7886 6.30763C14.2733 1.6465 2.0692 9.01535 0.342949 16.4066ZM35.1589 27.1466C32.5345 33.7595 24.2514 37.7936 15.0991 35.0919C5.94673 32.3901 -0.683419 22.3524 1.06252 16.4066C2.80846 10.4608 14.1515 7.03959 22.7501 9.77174C31.3486 12.5039 37.7834 20.5338 35.1589 27.1466Z" fill="#2D3144" fill-opacity="1"/>
<path opacity="0.2" fill-rule="evenodd" clip-rule="evenodd" d="M24.9028 8.22447C19.0274 5.40121 10.6265 7.53342 5.43576 11.5635C10.1189 8.93652 17.3192 7.94896 23.1204 9.86241C29.3987 11.9332 34.4009 17.2015 35.6122 22.2925C35.001 16.6688 31.122 11.2129 24.9028 8.22447ZM15.2557 36.3342C7.72354 34.1108 1.60142 26.2143 0.642728 20.174C0.607779 26.964 6.68425 34.2097 13.6305 36.923C21.3925 39.955 32.3299 35.8408 34.927 28.4153C31.8265 34.3635 24.1762 38.9675 15.2557 36.3342Z" fill="#2D3144" fill-opacity="1"/>
<path d="M17.3008 26.9391H20.0031V16.1813H23.1653V13.7281H14.1387V16.1813H17.3008V26.9391Z" fill="#2D3144" fill-opacity="1"/>
<path d="M16.5423 29.9375H20.7316C22.3626 29.9375 23.1352 29.1617 23.1352 27.5239V16.885H20.7609V27.4151C20.7609 27.6737 20.6751 27.7599 20.4176 27.7599H16.8563C16.5988 27.7599 16.513 27.6737 16.513 27.4151V16.885H14.1387V27.5239C14.1387 29.1617 14.9113 29.9375 16.5423 29.9375Z" fill="#2D3144" fill-opacity="1"/>
</svg>
