<svg width="122" height="28" viewBox="0 0 122 28" fill="none" xmlns="http://www.w3.org/2000/svg">
<path fill-rule="evenodd" clip-rule="evenodd" d="M1.35503 0L22.116 0.638954C22.9908 0.697041 23.6322 1.39408 23.5156 2.26538L21.8827 24.1641C21.7661 25.0354 21.0663 25.6743 20.1915 25.6162C20.1915 25.6162 11.6772 25.0354 10.5692 24.9773C9.46114 24.9192 8.46975 25.3258 7.76994 25.7905L4.97071 27.7655C4.2709 28.2301 3.62941 27.9978 3.51277 27.1265L0.0137358 1.51025C-0.102899 0.638954 0.538592 0 1.35503 0ZM20.4248 23.351L21.7078 3.0787C21.7078 2.73018 21.4745 2.55592 21.0663 2.614L10.3359 4.87938C10.0443 4.93747 9.75274 5.28599 9.81106 5.63451L11.5023 20.7951C11.6189 21.7245 12.2604 22.2473 13.1935 22.4216L19.7833 23.8157C20.1332 23.9318 20.4248 23.6995 20.4248 23.351Z" fill="#2D3144" fill-opacity="1"/>
<path fill-rule="evenodd" clip-rule="evenodd" d="M75.8263 19.1105C75.7097 20.098 76.1762 20.3884 76.876 20.3884C76.876 20.3884 76.9343 20.3884 76.9927 20.3303C77.1093 20.3303 77.2259 20.3884 77.2259 20.5046C77.3426 21.0855 77.5175 21.6082 77.7508 22.0729C77.8674 22.3634 77.7508 22.6538 77.4592 22.77C76.2929 23.2347 75.1848 23.3508 74.8349 23.3508C72.094 23.3508 71.5108 21.7825 71.8024 19.3429L73.202 8.13213C73.2604 7.95787 73.377 7.89978 73.6103 7.89978H76.7594C76.9927 7.89978 77.2259 8.01595 77.1676 8.2483L75.8263 19.1105ZM42.877 11.8497C44.2183 11.3269 46.3177 10.8041 48.2422 10.8041C50.6915 10.8041 52.9076 11.4431 52.4994 14.9864L51.5663 22.5957C51.508 22.8281 51.3913 22.8862 51.1581 22.8862H48.0673C47.834 22.8862 47.659 22.77 47.659 22.5376L48.5338 15.3349C48.7087 14.057 48.1839 13.6504 47.4258 13.6504C46.9592 13.6504 46.3761 13.7085 45.9095 13.8827C45.7929 13.9408 45.6762 13.9989 45.6762 14.1732L44.6265 22.6538C44.6265 22.8862 44.4516 22.9442 44.2183 22.9442H41.1275C40.8942 22.9442 40.661 22.8281 40.7193 22.5957L41.9439 12.7791C42.0023 12.3725 42.3522 12.082 42.877 11.8497ZM117.873 16.0318C116.998 15.6833 116.124 15.3348 116.24 14.6377C116.299 14.0569 116.823 13.8826 117.465 13.8826C118.281 13.8826 119.331 14.2311 119.973 14.5216C120.264 14.6377 120.556 14.5216 120.672 14.2311L121.314 12.3724C121.372 12.1981 121.314 12.0238 121.197 11.9077C120.206 11.1525 118.865 10.8621 117.523 10.8621C115.132 10.8621 112.741 12.0238 112.45 14.7539C112.219 16.8211 113.926 17.6395 115.486 18.3874L115.54 18.4134C116.299 18.7619 117.057 19.1104 116.94 19.7494C116.882 20.3883 116.357 20.5045 115.715 20.5045C114.782 20.5045 113.383 20.156 112.566 19.8655C112.333 19.8075 112.1 19.8655 112.041 20.0979L111.4 22.0728C111.342 22.3052 111.4 22.5956 111.633 22.6537C112.508 23.0603 114.024 23.4088 115.366 23.4088C118.806 23.4088 120.556 21.9567 120.847 19.4008C121.022 17.3097 119.331 16.6127 117.873 16.0318ZM54.6572 12.4306L53.4325 22.4215C53.3742 22.7119 53.6074 23.0024 53.9574 23.0024H56.9899C57.2231 23.0024 57.3398 22.9443 57.3981 22.7119L58.6811 12.4887C58.6811 12.2563 58.5061 12.082 58.2728 12.082H55.1237C54.8904 12.024 54.7155 12.1982 54.6572 12.4306ZM67.0787 16.9031C66.8454 19.0523 65.9123 20.3302 64.3961 20.3302C64.1628 20.3302 63.9879 20.3302 63.7546 20.2722C63.5213 20.2141 63.4047 20.0398 63.4047 19.8075L64.0462 14.4635C64.1045 13.9988 64.4544 13.8245 64.8626 13.7664H65.3875C66.7871 13.8245 67.312 14.9282 67.0787 16.9031ZM61.3054 11.5591C62.0635 11.3268 64.3962 10.8621 66.0291 10.8621C68.9449 10.8621 71.6275 12.0819 71.1027 16.9031C70.6944 20.3302 69.0032 23.4088 64.5711 23.4088C64.2212 23.4088 63.8713 23.4088 63.5214 23.3507C63.2298 23.2927 62.9966 23.4669 62.9382 23.7573L62.4717 27.533C62.4717 27.7653 62.2967 27.9396 62.0635 27.9396H58.9727C58.7394 27.9396 58.5061 27.6492 58.5644 27.4168L60.3723 13.0113C60.4306 12.3724 60.5472 11.8496 61.3054 11.5591ZM84.9238 19.5171C84.8655 19.9818 84.8072 20.2723 84.399 20.3884H84.3407C84.1074 20.4465 83.8741 20.4465 83.6992 20.4465C82.4162 20.4465 82.1246 18.9944 82.2996 17.4841C82.5328 15.7415 83.116 13.8246 84.8072 13.8246C84.9822 13.8246 85.0988 13.8246 85.2154 13.8827C85.4487 13.9408 85.5653 14.1151 85.507 14.3474L84.9238 19.5171ZM89.181 11.7335C89.5892 11.9078 89.7058 12.3144 89.6475 12.721L88.8311 19.8657C88.7144 20.8531 88.6561 21.8987 88.7727 22.8862C88.8311 23.1766 88.5978 23.467 88.3062 23.467H85.7402C85.5653 23.467 85.3903 23.2928 85.332 23.1185C85.2154 22.77 84.8655 22.6538 84.5739 22.8281C83.9324 23.2347 83.116 23.4089 82.3578 23.4089C78.6838 23.4089 77.9257 20.5046 78.3339 17.3098C78.7422 14.1151 80.6083 10.9203 85.3903 10.9203C86.4984 10.9203 87.7813 11.1526 89.181 11.7335ZM106.909 13.5341C107.551 13.5341 108.076 13.8826 107.959 14.5216C107.784 15.9737 106.151 16.5546 104.752 16.5546H104.285C103.935 16.4965 103.76 16.2061 103.877 15.8576C104.343 14.5797 105.393 13.5341 106.909 13.5341ZM103.702 18.7619C103.935 19.9817 105.335 20.5045 106.793 20.5045C107.726 20.5045 108.717 20.3302 109.534 20.156C109.825 20.0979 110.059 20.2721 110.059 20.5626V22.4214C110.059 22.6537 109.942 22.828 109.709 22.8861C108.892 23.1184 107.318 23.4669 105.335 23.4669C101.078 23.4669 99.6198 20.7368 100.028 17.484C100.436 14.115 102.536 10.8621 107.201 10.8621C109.825 10.8621 111.575 12.0238 111.283 14.5216C110.933 17.4259 108.309 18.8781 105.801 18.8781C105.737 18.8781 105.673 18.8786 105.609 18.8792C105.032 18.8845 104.46 18.8896 103.935 18.4715C103.76 18.4715 103.644 18.5876 103.702 18.7619ZM99.5615 13.9408C99.9114 13.2438 100.261 12.6629 100.67 12.1401C100.844 11.9078 100.844 11.5592 100.553 11.4431C99.7948 11.1526 98.3368 10.8041 97.0539 10.8041C93.7298 10.8041 90.7556 12.4886 90.1724 17.0775C89.6476 21.5502 92.1552 23.3509 95.3627 23.3509C96.354 23.3509 97.2288 23.2347 98.1619 23.0023H98.2202C98.7451 22.8862 99.1533 22.4796 99.1533 21.8987L99.2116 20.5627C99.2116 20.2723 98.9783 20.098 98.6867 20.1561C97.7537 20.3884 96.9955 20.5046 96.354 20.5046C94.7212 20.5046 93.7298 19.8076 94.0797 17.1356C94.4296 14.5217 95.4793 13.8246 97.1122 13.8246C97.637 13.8246 98.6284 14.057 99.095 14.1732C99.2699 14.2312 99.4449 14.1151 99.5615 13.9408ZM36.8704 8.42245C36.9287 8.1901 37.1036 7.95776 37.3952 7.95776H40.4277C40.7193 7.95776 40.9526 8.1901 40.9526 8.53862L40.8943 8.82906L39.7862 17.484C39.3197 21.4339 37.6285 23.4088 33.0797 23.4088C28.8226 23.4088 27.3646 21.5501 27.8895 17.4259L28.9975 8.48054V8.36436C29.0558 8.13202 29.2308 7.95776 29.5224 7.95776H32.6715C32.9048 7.95776 33.0797 8.13202 33.0797 8.36436V8.48054L31.9717 17.3097C31.7384 19.1104 31.7384 20.2141 33.488 20.2141C35.1792 20.2141 35.4707 19.2266 35.7623 17.3097L36.8704 8.71288V8.42245ZM54.8904 10.6297L55.182 8.36436C55.182 8.1901 55.3569 7.95776 55.5902 7.95776H58.7393C58.9726 7.95776 59.2059 8.24819 59.1476 8.48054L58.856 10.7459C58.856 10.9202 58.681 11.0944 58.4478 11.0944H55.2986C55.0653 11.0944 54.8904 10.8621 54.8904 10.6297Z" fill="#2D3144" fill-opacity="1"/>
</svg>
