<svg width="120" height="28" viewBox="0 0 120 28" fill="none" xmlns="http://www.w3.org/2000/svg">
<g opacity="1">
<path fill-rule="evenodd" clip-rule="evenodd" d="M25.8205 24.8231H29.6438H30.8074V27.4828H28.4803C26.5779 27.4828 25.1557 27.021 24.2137 26.079C23.2903 25.1556 22.81 23.7334 22.81 21.8126V12.8362H18.8205V10.158H22.81V5.50366H25.8021V10.158H30.2903V12.8177H25.8021V24.4168V24.8231H25.8205ZM80.1961 12.5038C79.5312 11.5802 78.6262 10.8785 77.481 10.3982C76.3359 9.91798 75.043 9.65942 73.6024 9.65942C71.4783 9.65942 69.7606 10.1397 68.4307 11.1001C67.101 12.0605 66.436 13.3535 66.436 14.9972C66.436 16.4009 66.8608 17.4537 67.7104 18.1925C68.5601 18.9313 69.7421 19.4484 71.2751 19.7624L74.4335 20.4274C75.4863 20.6491 76.2251 20.8337 76.6683 20.9629C77.1116 21.1108 77.4625 21.2954 77.7211 21.554C77.9797 21.7942 78.109 22.182 78.109 22.6622C78.109 23.401 77.7396 24.029 76.9823 24.5461C76.2251 25.0633 75.1169 25.3218 73.6762 25.3218C70.3886 25.3218 68.5416 24.0475 68.1167 21.4986H64.9585C65.254 23.4564 66.122 25.0264 67.5627 26.2084C69.0033 27.3905 71.0535 27.9816 73.6947 27.9816C75.1538 27.9816 76.4468 27.7414 77.5734 27.2797C78.7001 26.818 79.5681 26.1715 80.1961 25.3403C80.8057 24.5092 81.1197 23.5673 81.1197 22.496C81.1197 21.0554 80.6578 20.0026 79.7344 19.3376C78.8109 18.6727 77.4996 18.1556 75.7818 17.8047L72.6235 17.1397C71.4599 16.8996 70.6472 16.641 70.1669 16.3456C69.6867 16.05 69.4466 15.5883 69.4466 14.9418C69.4466 14.1846 69.7975 13.5566 70.4994 13.0764C71.2013 12.5776 72.1802 12.3376 73.4547 12.3376C76.3728 12.3376 77.9243 13.4458 78.109 15.6622H81.2674C81.212 14.4615 80.861 13.4089 80.1961 12.5038ZM37.5306 12.8362C38.1032 11.0077 39.5439 10.1026 41.8341 10.1026H43.2932V13.0947H41.3909C39.8948 13.0947 38.7865 13.4456 38.0663 14.1661C37.3274 14.8678 36.958 16.05 36.958 17.6568V27.4828H33.9659V10.158H36.958V12.8177H37.5306V12.8362ZM10.3432 27.1505C11.2297 26.5779 11.95 25.7652 12.4856 24.694H12.9843V27.483H15.9949V10.1582H13.0028V19.1529C13.0028 21.2031 12.5411 22.7361 11.6175 23.7704C10.694 24.8048 9.38269 25.322 7.66502 25.322C6.15051 25.322 4.98688 24.8971 4.19266 24.0844C3.39843 23.2533 2.99213 22.0527 2.99213 20.4828V10.1582H0V21.0185C0 23.2533 0.591073 24.9709 1.77308 26.19C2.95523 27.3905 4.58058 28.0001 6.66764 28.0001C8.21906 28.0001 9.4381 27.723 10.3432 27.1505ZM56.3146 27.1505C57.2012 26.5779 57.9216 25.7652 58.4571 24.694H58.9743V27.483H61.9664V10.1582H58.9743V19.1529C58.9743 21.2031 58.5125 22.7361 57.5891 23.7704C56.6656 24.8048 55.3543 25.322 53.6365 25.322C52.122 25.322 50.9585 24.8971 50.1643 24.0844C49.37 23.2533 48.9637 22.0527 48.9637 20.4828V10.1582H45.9716V21.0185C45.9716 23.2533 46.5625 24.9709 47.7447 26.19C48.9267 27.3905 50.552 28.0001 52.6391 28.0001C54.1907 28.0001 55.4097 27.723 56.3146 27.1505ZM93.827 24.8231H89.9852V24.4168V12.8177H94.4733V10.158H89.9852V5.50366H86.9931V10.158H83.0036V12.8362H86.9931V21.8126C86.9931 23.7334 87.4733 25.1556 88.3968 26.079C89.3387 27.021 90.7609 27.4828 92.6634 27.4828H94.9905V24.8231H93.827Z" fill="#2D3144"/>
<path d="M115.784 3.89718V7.2033V16.9184H103.28V6.57533V3.89718H115.784V0H108.119L99.3828 6.75996V11.1003C99.3828 16.7706 104.037 21.5543 109.708 21.4435C115.23 21.3512 119.681 16.826 119.681 11.3035V3.89718H115.784Z" fill="#2D3144"/>
</g>
</svg>
