<svg width="35" height="28" viewBox="0 0 35 28" fill="none" xmlns="http://www.w3.org/2000/svg">
<path d="M0 18.0293C0 21.0341 0.637398 23.4472 1.9122 25.2683C3.18699 27.0894 5.09919 28 7.55772 28C9.65203 28 11.3821 27.3171 12.748 25.9057C14.1138 24.5398 14.8423 22.8098 14.8423 20.7154C14.8423 18.7122 14.1594 17.0276 12.7935 15.6618C11.4276 14.2959 9.78862 13.613 7.92195 13.613C7.28455 13.613 6.8748 13.6585 6.64715 13.7041C6.82927 11.7008 7.60325 9.97073 8.96911 8.46829C10.335 7.01138 11.7463 6.14634 13.2488 5.87317V0C11.2455 0.0910569 9.37886 0.682927 7.64878 1.82114C5.9187 2.95935 4.55285 4.41626 3.46016 6.14634C2.36748 7.87642 1.50244 9.78862 0.910569 11.8829C0.273171 13.9772 0 16.026 0 18.0293ZM19.3041 18.0293C19.3041 21.0341 19.9415 23.4472 21.2163 25.2683C22.4911 27.0894 24.4033 28 26.8618 28C28.9561 28 30.6862 27.3171 32.052 25.9057C33.4179 24.5398 34.1463 22.8098 34.1463 20.7154C34.1463 18.7122 33.4634 17.0276 32.0976 15.6618C30.7317 14.2959 29.0927 13.613 27.226 13.613C26.5886 13.613 26.1789 13.6585 25.9512 13.7041C26.1333 11.7008 26.9073 9.97073 28.2732 8.46829C29.639 7.01138 31.0504 6.14634 32.5528 5.87317V0C30.5496 0.0910569 28.6829 0.682927 26.9528 1.82114C25.2228 2.95935 23.8569 4.41626 22.7642 6.14634C21.6715 7.87642 20.8065 9.78862 20.2146 11.8829C19.5772 13.9772 19.3041 16.026 19.3041 18.0293Z" fill="#F0814D"/>
</svg>
