<svg width="112" height="24" viewBox="0 0 112 24" fill="none" xmlns="http://www.w3.org/2000/svg">
<mask id="mask0" mask-type="alpha" maskUnits="userSpaceOnUse" x="0" y="0" width="112" height="24">
<path fill-rule="evenodd" clip-rule="evenodd" d="M79.0034 0V7.8382H72.3966V5.21002C72.3966 4.32484 72.5813 3.69518 72.9488 3.32093C73.319 2.94902 73.8664 2.76166 74.5946 2.76166H76.3659V0H73.911C72.367 0 71.2244 0.425197 70.4893 1.27642C69.7511 2.1274 69.3815 3.28449 69.3815 4.74827V7.8382H67.6889C66.184 7.8382 65.022 7.97192 64.205 8.23935C63.3862 8.50925 62.6334 9.04659 61.9478 9.85347V8.10563H58.9772V22.632H61.9478V15.1076C61.9478 12.3042 63.957 10.6437 67.6889 10.6437V10.6292H69.3815V22.632H72.3966V10.6292H79.0034V18.9295C79.0034 20.2446 79.3488 21.2564 80.0398 21.9684C80.7329 22.6784 81.6905 23.0356 82.9115 23.0356H91.8346L91.8335 23.0339C93.0786 23.0236 94.2413 22.7531 95.3227 22.2213C96.423 21.6792 97.3161 20.9305 98.0022 19.9751L95.8827 18.3776C95.4289 19.0046 94.8316 19.4908 94.0939 19.8414C93.3561 20.1886 92.5789 20.3638 91.7599 20.3638C90.5286 20.3638 89.4754 19.9917 88.602 19.2503C87.7283 18.5088 87.1859 17.5654 86.9736 16.4228H99.0482C99.0901 16.0241 99.1099 15.691 99.1099 15.4214C99.1099 14.4171 98.9195 13.4517 98.5399 12.5256C98.1625 11.5992 97.6446 10.7923 96.9879 10.1064C96.3317 9.42084 95.5349 8.86901 94.5947 8.45548C93.6549 8.04479 92.6505 7.8382 91.58 7.8382C90.1442 7.8382 88.8465 8.18805 87.6866 8.89094C86.5244 9.59099 85.6264 10.5224 84.9899 11.682C84.3535 12.8419 84.0351 14.0984 84.0351 15.4504C84.0351 17.311 84.6084 18.9177 85.7537 20.2704C84.7333 20.2726 83.9173 20.2736 83.8047 20.2736C83.1086 20.2736 82.6301 20.0989 82.3734 19.7512C82.1146 19.4034 81.9862 18.8251 81.9862 18.0199V0H79.0034ZM88.7078 11.5238C89.5223 10.8577 90.4895 10.5248 91.6095 10.5248C92.7617 10.5248 93.7486 10.8652 94.5727 11.5479C95.3943 12.2288 95.8974 13.0822 96.0802 14.1083H87.08C87.3538 13.0531 87.8963 12.1929 88.7078 11.5238ZM46.382 8.89082C45.2201 9.59088 44.3219 10.5223 43.6859 11.6822C43.049 12.8419 42.731 14.0986 42.731 15.4504C42.731 17.5798 43.4803 19.3768 44.9811 20.8402C46.4808 22.304 48.3065 23.0355 50.4553 23.0355C51.7287 23.0355 52.9154 22.7635 54.0182 22.2216C55.1184 21.679 56.0119 20.9304 56.6975 19.975L54.5782 18.3775C54.1244 19.0049 53.5271 19.491 52.7893 19.8412C52.0517 20.1885 51.2745 20.3641 50.4553 20.3641C49.2241 20.3641 48.1709 19.9919 47.2975 19.2501C46.4244 18.5087 45.8814 17.5653 45.669 16.4227H57.7437C57.7856 16.024 57.8053 15.6913 57.8053 15.4212C57.8053 14.417 57.6151 13.452 57.2352 12.5256C56.858 11.5991 56.34 10.7922 55.6839 10.1063C55.0273 9.42073 54.2303 8.86889 53.2905 8.45572C52.3503 8.04467 51.3465 7.83809 50.2755 7.83809C48.8397 7.83809 47.542 8.18829 46.382 8.89082ZM47.4037 11.5237C48.218 10.858 49.1849 10.5246 50.3049 10.5246C51.4573 10.5246 52.4441 10.8651 53.2684 11.5481C54.0896 12.2291 54.5928 13.0824 54.7757 14.1082H45.7755C46.0493 13.0533 46.5918 12.1926 47.4037 11.5237ZM17.8617 8.86665C16.6745 9.55432 15.7398 10.481 15.0588 11.6432C14.3753 12.8077 14.0351 14.0769 14.0351 15.4502C14.0351 15.5297 14.0402 15.6075 14.0422 15.6857C13.3545 16.8131 11.0742 20.2738 7.90631 20.2738C6.55188 20.2738 5.40706 19.8022 4.46693 18.8613C3.52716 17.9231 3.05806 16.7947 3.05806 15.4819C3.05806 14.1668 3.52213 13.0291 4.4523 12.0609C5.38236 11.0959 6.51231 10.6148 7.84456 10.6148C8.68348 10.6148 9.46568 10.8165 10.1861 11.2176C10.5742 11.4341 10.9188 11.6888 11.2207 11.9813L13.0619 9.81786C12.6308 9.43653 12.1521 9.1 11.6271 8.8084C10.46 8.16164 9.19935 7.83832 7.84456 7.83832C6.43089 7.83832 5.13078 8.1811 3.94399 8.86665C2.75755 9.55432 1.82498 10.481 1.14159 11.6432C0.460473 12.8077 0.119797 14.0769 0.119797 15.4502C0.119797 16.8241 0.46551 18.0929 1.1561 19.2575C1.84932 20.4223 2.78897 21.3438 3.97624 22.0195C5.16303 22.6979 6.45307 23.0358 7.84456 23.0358C11.1396 23.0358 13.545 20.9683 15.0352 19.1878C15.0485 19.2108 15.0598 19.2348 15.0736 19.2575C15.7643 20.4223 16.7044 21.3438 17.8912 22.0195C19.0777 22.6979 20.3682 23.0358 21.7621 23.0358C23.1659 23.0358 24.4661 22.6955 25.6626 22.012C26.8591 21.3314 27.8068 20.4075 28.505 19.2428C29.2009 18.0784 29.5486 16.8142 29.5486 15.4502C29.5486 14.0769 29.2009 12.8052 28.505 11.6359C27.8068 10.4666 26.8591 9.54229 25.6626 8.85957C24.4661 8.17862 23.1659 7.83832 21.7621 7.83832C20.3485 7.83832 19.048 8.1811 17.8617 8.86665ZM18.3769 18.8542C17.4421 17.9111 16.9759 16.7852 16.9759 15.4818C16.9759 14.1668 17.4395 13.0291 18.3672 12.0609C19.2977 11.0959 20.4395 10.6148 21.7919 10.6148C23.1266 10.6148 24.259 11.0864 25.1936 12.0319C26.129 12.9778 26.5956 14.1084 26.5956 15.4211C26.5956 16.7339 26.1315 17.8718 25.2013 18.8323C24.2713 19.7927 23.1362 20.2738 21.7919 20.2738C20.4496 20.2738 19.3098 19.7997 18.3769 18.8542ZM107.829 8.10563L104.723 12.601L101.616 8.10563H98.2684L103.055 14.9884L97.4444 23.0356H100.775L104.723 17.3758L106.544 14.7298L111.177 8.10563H107.829ZM40.5695 8.10563L36.1014 18.9588L31.6925 8.10563H28.4653L34.557 22.632H37.752L43.7963 8.10563H40.5695Z" fill="white"/>
</mask>
<g mask="url(#mask0)">
<path fill-rule="evenodd" clip-rule="evenodd" d="M-1.07935 23.326H112.376V-2.06802H-1.07935V23.326Z" fill="#2D3144"/>
</g>
<path fill-rule="evenodd" clip-rule="evenodd" d="M105.58 19.5271L108.612 23.9247H111.931L108.847 19.5271H105.58Z" fill="#F0814D"/>
</svg>
