<svg width="67" height="56" viewBox="0 0 67 56" fill="none" xmlns="http://www.w3.org/2000/svg">
<path fill-rule="evenodd" clip-rule="evenodd" d="M21.9715 13.7089C22.7067 14.9698 22.5368 16.9471 21.5846 18.2103C21.1757 18.7531 20.66 19.114 20.0932 19.2699C19.2232 21.9833 17.3379 24.0075 15.8384 25.2681H15.8387C14.7832 26.1555 13.4336 26.6254 12.0654 26.6254C11.4522 26.6254 10.8355 26.531 10.2394 26.3374C7.365 25.4039 3.8706 23.0437 2.36409 19.1684C1.79317 18.9416 1.27573 18.4854 0.87354 17.8385C0.174364 16.7132 -0.210094 14.9141 0.598125 13.624C0.875609 13.181 1.50327 12.4824 2.75564 12.4054L2.32302 4.15196L2.81208 3.7859C13.5219 -4.22162 19.9862 2.95026 20.0498 3.02347L20.3252 3.3392L20.4032 12.4583C21.0666 12.6642 21.6115 13.0915 21.9715 13.7089ZM19.6748 16.8622C20.079 16.3257 20.1969 15.3208 19.9127 14.8335C19.8766 14.7717 19.829 14.6916 19.7043 14.6447C19.3982 14.9627 19.0146 15.3869 18.8148 15.6954C18.4688 16.2311 17.7401 16.3938 17.1857 16.0586C16.6325 15.7235 16.4646 15.0177 16.811 14.482C17.0063 14.1794 17.2791 13.8477 17.5438 13.5497C14.0846 10.9118 10.519 12.2934 7.34374 13.5263C6.80088 13.7373 6.28492 13.9364 5.78847 14.1102L6.24414 14.8455C6.57984 15.3874 6.3981 16.0901 5.83841 16.415C5.6478 16.5254 5.43829 16.578 5.23143 16.578C4.82983 16.578 4.43799 16.3798 4.21636 16.022L3.38124 14.6742C3.31741 14.6785 3.25299 14.6868 3.18975 14.6888L3.13538 14.6905L3.08189 14.6873C2.64129 14.6605 2.59489 14.7817 2.54259 15.0154C2.36794 15.7964 2.90606 16.8843 3.23999 17.043L4.12416 16.9938L4.39632 17.8515C5.48675 21.287 8.63068 23.4018 10.9915 24.1685C12.1272 24.5375 13.3896 24.2967 14.2879 23.5411C15.6688 22.38 17.4363 20.4659 18.0146 17.9387L18.2664 16.8382L19.4073 17.0656C19.4975 17.0822 19.6355 16.9146 19.6748 16.8622ZM17.9689 4.22872C16.8297 3.19518 12.259 -0.0950598 4.74717 5.23967L5.09735 11.9191C5.53352 11.7641 5.99363 11.5856 6.46378 11.4032C9.64879 10.166 13.8462 8.5382 18.0271 11.0737L17.9689 4.22872ZM10.4159 20.1007C10.1706 20.9269 12.6334 21.9061 12.2032 22.0986C11.7729 22.291 7.7776 21.7728 7.77908 19.622C7.90822 18.6837 8.9886 18.0453 9.88311 18.2126C10.7693 18.3785 10.9254 19.1818 10.4159 20.1007ZM15.1033 8.54775C14.4559 8.46939 13.9961 7.89771 14.077 7.27084C14.1314 6.8493 14.1486 6.41832 14.1622 6.07229C14.1707 5.86066 14.1784 5.67648 14.1908 5.53178C14.2446 4.90204 14.8203 4.43246 15.4659 4.48536C16.1167 4.53741 16.6004 5.08965 16.5469 5.71938C16.5369 5.83721 16.5315 5.98763 16.5248 6.1598C16.5091 6.54988 16.4899 7.03519 16.4228 7.55425C16.3483 8.13308 15.8389 8.55662 15.2514 8.55662C15.2026 8.55662 15.1533 8.55376 15.1033 8.54775ZM11.8792 8.45078C11.2264 8.45078 10.6972 7.93858 10.6972 7.30685V5.30497C10.6972 4.67323 11.2264 4.16104 11.8792 4.16104C12.532 4.16104 13.0612 4.67323 13.0612 5.30497V7.30685C13.0612 7.93858 12.532 8.45078 11.8792 8.45078ZM7.16357 8.32976L6.905 6.61386C6.81074 5.9887 7.25784 5.40816 7.90412 5.31693C8.54951 5.2237 9.15029 5.65868 9.24426 6.28384L9.50283 7.99974C9.5971 8.6249 9.14999 9.20544 8.50371 9.29667C8.44609 9.30496 8.38846 9.30868 8.33172 9.30868C7.7543 9.30868 7.24927 8.89915 7.16357 8.32976ZM28.0852 42.3488C28.0852 43.8714 26.6461 44.951 24.6157 44.951C23.2144 44.951 22.175 44.2863 22.175 43.1516V43.0966C22.175 41.7677 23.3858 41.0484 25.2445 41.0484C26.3036 41.0484 27.1987 41.2698 28.0852 41.6015V42.3488ZM25.2259 32.5791C27.5992 32.5791 29.2487 33.1876 30.3353 34.2392C31.4798 35.3465 31.9269 36.98 31.9269 38.9722V45.7266C31.9269 46.8608 31.0164 47.7467 29.8438 47.7467C28.5856 47.7467 27.7898 46.8888 27.7898 46.0028V45.9754C26.9032 47.1104 25.3453 47.8577 23.2289 47.8577C20.34 47.8577 18.0379 46.2522 18.0379 43.318V43.2625C18.0379 40.0246 20.4969 38.5292 24.1293 38.5292C25.6736 38.5292 26.9032 38.7789 27.7898 39.1389V38.8896C27.7898 37.1453 26.7224 36.1767 24.5486 36.1767C23.3468 36.1767 22.4227 36.3434 21.5932 36.5917C21.3361 36.6752 21.1638 36.7024 20.9638 36.7024C19.9629 36.7024 19.1624 35.9551 19.1624 34.9865C19.1624 34.2392 19.6485 33.6026 20.3349 33.3538C21.7079 32.8553 23.1949 32.5791 25.2259 32.5791ZM20.6219 30.1595C20.6219 31.2391 19.707 32.1617 18.5915 32.1617H14.1963V45.6155C14.1963 46.8051 13.2102 47.7466 11.9803 47.7466C10.7504 47.7466 9.76369 46.8051 9.76369 45.6155V32.1617H5.72083C4.60528 32.1617 3.69067 31.2391 3.69067 30.1595C3.69067 29.0799 4.60528 28.1579 5.72083 28.1579H6.91853L6.99625 28.1802C8.46227 28.2263 9.62806 29.0951 12.2327 29.0951C14.8373 29.0951 16.5235 28.1579 16.5235 28.1579H18.5915C19.707 28.1579 20.6219 29.0799 20.6219 30.1595ZM40.6256 38.6124C42.7698 39.3042 45.2249 40.3011 45.2249 43.0134V43.0689C45.2249 46.3628 42.6705 47.8574 39.3529 47.8574C37.4651 47.8574 35.4252 47.3314 33.5665 46.1686C33.1087 45.8918 32.7396 45.3939 32.7396 44.7296C32.7396 43.7887 33.4897 43.0689 34.4622 43.0689C34.7769 43.0689 35.1034 43.1515 35.3325 43.2902C36.7911 44.1756 38.2745 44.6186 39.5045 44.6186C40.7627 44.6186 41.3833 44.1756 41.3833 43.5118V43.4564C41.3833 42.5429 39.7822 42.2386 38.0952 41.7402C35.9495 41.131 33.4045 40.1624 33.4045 37.284V37.2285C33.4045 34.2114 35.9882 32.5227 39.0769 32.5227C40.6785 32.5227 42.4037 32.9385 43.8913 33.6583C44.5201 33.9626 44.9235 34.5162 44.9235 35.2355C44.9235 36.1764 44.1567 36.8962 43.1838 36.8962C42.8697 36.8962 42.6809 36.841 42.3945 36.702C41.1646 36.1218 40.0139 35.7614 39.0984 35.7614C38.0408 35.7614 37.5417 36.2044 37.5417 36.7855V36.841C37.5417 37.6709 38.966 38.0593 40.6256 38.6124ZM64.7834 32.4808C65.899 32.4988 66.7885 33.3891 66.7702 34.4689L66.5736 45.7124C66.5736 51.3697 61.8511 56 56.0452 56C54.2837 56 52.6637 55.6403 51.2278 54.9305C50.234 54.4391 49.8416 53.2615 50.3493 52.2997C50.8572 51.3368 52.0818 50.9579 53.0724 51.4475C53.9338 51.8733 54.9453 52.0892 56.0621 52.0892C58.9383 52.0892 61.3984 50.2289 62.2465 47.6631L62.2072 47.6639C56.6185 47.6639 53.4991 44.6048 53.4991 39.27V36.7374H51.4305V46.4399C51.4305 47.5201 50.4781 48.3952 49.362 48.3952C48.2458 48.3952 47.2934 47.5201 47.2934 46.4399V36.6627C46.1114 36.6627 45.273 35.7873 45.273 34.7075C45.273 33.6276 46.1114 32.7519 47.2934 32.7519V32.5125C47.2934 31.4327 48.2458 30.557 49.362 30.557C50.4781 30.557 51.4305 31.4327 51.4305 32.5125V32.7336H55.3759C56.492 32.7336 57.3407 33.6276 57.3407 34.7075V39.27C57.3407 42.4959 58.69 43.7531 62.0825 43.7531L62.5656 43.7477L62.7285 34.4029C62.7477 33.323 63.6756 32.435 64.7834 32.4808ZM29.4886 29.4838C25.5202 29.4838 22.4709 26.6971 22.4709 22.6056V22.5553C22.4709 22.0905 22.5128 21.637 22.5929 21.1985C23.4756 20.5728 24.2289 19.585 24.6517 18.3622C24.7903 17.9615 24.8805 17.5611 24.9345 17.1668C26.0551 16.255 27.4999 15.7105 29.1509 15.7105C33.5091 15.7105 35.6512 19.2333 35.6512 22.2956C35.6512 23.1487 34.976 23.8682 34.1719 23.8682H25.587C25.9236 25.2981 27.5309 26.9617 29.5539 26.9617C32.8592 26.9617 34.8796 24.5039 36.6193 22.6056C37.7579 21.363 39.942 20.9904 41.575 20.9904C43.1944 20.9904 44.3386 21.254 45.2251 21.5203V21.2749C45.2251 19.4249 44.0582 18.4468 41.8758 18.4468C40.7715 18.4468 39.7363 18.6184 38.8134 18.9705C38.6172 19.0254 38.4736 19.0494 38.317 19.0494C37.554 19.0494 36.9423 18.4603 36.9423 17.7356C36.9423 17.1919 37.3146 16.674 37.8415 16.4761C39.3315 15.9276 40.6592 15.6939 42.2759 15.6939C44.2866 15.6939 45.7845 16.2119 46.7718 17.1925C47.7636 18.1282 48.1802 19.5195 48.1802 21.3252V27.8517C48.1802 28.7013 47.5079 29.3665 46.6158 29.3665C45.7234 29.3665 45.052 28.7788 45.052 28.0278C43.8303 29.2441 42.5256 29.5172 40.7148 29.5172C38.6341 29.5172 36.8861 28.405 36.2753 26.73C36.0705 26.9119 34.1125 29.4838 29.4886 29.4838ZM49.1075 18.1485C48.3407 18.1485 47.7322 17.604 47.7322 16.8619C47.7322 16.1194 48.3407 15.5747 49.1075 15.5747H49.6575V14.9767C49.6575 14.1322 50.3971 13.4415 51.2961 13.4415C52.1687 13.4415 52.9081 14.1322 52.9081 14.9767V15.5747H55.3484C56.1152 15.5747 56.7497 16.1194 56.7497 16.8619C56.7497 17.604 56.1152 18.1485 55.3484 18.1485H52.9081V24.8545C52.9081 26.0571 53.5068 26.5432 54.5907 26.5432C54.9613 26.5432 55.2426 26.4666 55.3484 26.4666C56.0624 26.4666 56.6998 27.0297 56.6998 27.7461C56.6998 28.3092 56.3059 28.7699 55.8564 28.9492C55.1684 29.1794 54.513 29.3073 53.6667 29.3073C51.3132 29.3073 49.6575 28.3092 49.6575 25.3407V18.1485H49.1075ZM42.1157 23.2388C40.1399 23.2388 39.2114 24.0384 39.2114 25.2149C39.2114 26.4312 40.0861 27.1908 41.6479 27.1908C43.7312 27.1908 44.9295 26.2479 44.9295 24.9775V24.0621C44.3385 23.5491 43.4868 23.2388 42.1157 23.2388ZM29.2307 18.1081C27.3116 18.1081 25.8459 19.8646 25.5607 21.2945H32.59C32.3826 19.8646 31.3057 18.1081 29.2307 18.1081Z" fill="#F0814D" fill-opacity="1"/>
</svg>
