<svg width="70" height="56" viewBox="0 0 70 56" fill="none" xmlns="http://www.w3.org/2000/svg">
<g opacity="0.4">
<path d="M13.2763 49.7097V44.9726C16.2273 44.9726 17.3145 44.8172 17.8581 48.4672H18.1687V44.429H10.0147V44.9726H11.4125V55.4564H9.85938V56H18.2464V51.7288H17.8581C17.4698 54.9904 16.6156 55.4564 14.2859 55.4564H13.1987V50.4086H13.8199C14.8295 50.4086 15.4507 51.0299 15.6837 52.816H16.072V47.5353H15.6837C15.6837 47.5353 15.606 49.7873 13.8199 49.7873H13.2763V49.7097Z" fill="#F0814D"/>
<path d="M9.94019 49.8646H5.35838V50.4082H6.91153V54.1358C6.67856 55.0677 5.20307 55.4559 4.81478 55.4559C1.86378 55.4559 2.09676 51.1848 2.09676 50.0199C2.09676 49.0104 2.0191 44.5839 4.81478 44.5839C6.83388 44.5839 7.84343 46.5253 8.23172 48.3114H8.54235C8.54235 47.6125 8.54235 44.1179 8.54235 44.1179C8.54235 44.1179 7.14451 45.1275 7.14451 45.0498C7.14451 45.0498 6.52325 44.1179 4.73712 44.1179C1.32018 44.1179 0 47.5349 0 49.9422C0 52.1167 1.00955 55.9219 4.73712 55.9219C5.90199 55.9219 6.67856 55.3006 7.14451 54.6794L8.62 55.8442V50.3305H9.86253V49.8646H9.94019Z" fill="#F0814D"/>
<path d="M63.4467 51.6507C63.0584 54.9123 62.2042 55.3783 59.8745 55.3783H59.7191V44.9722H61.1946V44.4285H56.3799V44.9722H57.8554V55.4559H56.6905L52.4193 44.1179H51.7981C51.7981 44.1179 48.2258 54.3687 48.2258 54.4464C48.2258 54.4464 47.9928 55.3006 47.3716 55.4559C46.828 55.4559 46.9056 55.223 46.9056 55.0677V53.0486C46.9056 52.5049 46.828 51.3401 46.362 50.7965C45.7408 50.1752 44.7312 50.1752 44.7312 50.0976C44.7312 50.0976 47.3716 49.554 47.3716 47.0689C47.3716 45.2828 46.129 44.4286 44.1099 44.3509H38.3633V44.8945H39.8388V55.3783H38.3633V55.9219H43.1004V55.3783H41.6249V50.3305H43.5663C46.9833 50.6412 42.9451 55.9219 47.4492 55.9219H50.2449V55.3783C50.0896 55.3783 49.08 55.3783 49.0024 54.6794C48.9247 54.1358 49.7013 52.272 49.7013 52.272H53.5842C53.5842 52.272 54.7491 55.3783 54.8267 55.3783H53.5065V55.9219H63.9903V51.6507H63.4467ZM43.4887 49.7869H41.6249V44.9722H44.0323C45.4301 45.2051 45.5078 46.8359 45.5078 47.3019C45.5078 48.5444 44.9642 49.7869 43.4887 49.7869ZM50.0119 51.806L51.7204 46.8359L53.5065 51.806H50.0119Z" fill="#F0814D"/>
<path d="M32.617 44.8954C35.568 44.8954 36.7328 44.7401 37.1988 48.39H37.5094V44.3518H25.7054V44.8954H26.0161C26.4044 44.8954 27.4139 44.8954 27.4916 45.8273V52.5059L21.9779 44.3518H18.9492V44.8954H19.4152C20.0364 44.8954 20.813 44.8954 20.8907 45.8273V54.3697C20.8907 55.2239 19.6481 55.5345 19.1045 55.5345V55.9228H23.2204V55.5345C22.6768 55.5345 21.4343 55.2239 21.4343 54.3697V46.8369C23.6087 49.9432 27.7245 55.9228 27.8022 55.9228H28.0352V45.8273C28.1128 44.9731 29.0447 44.8954 29.5107 44.8954H30.8308V55.3792H29.2777V55.9228H37.6647V51.6516H37.2764C36.8881 54.9133 36.0339 55.3792 33.7042 55.3792H32.617V50.3314H33.2382C34.2478 50.3314 34.869 50.9527 35.102 52.7388H35.4903V47.4581H35.102C35.102 47.4581 35.0244 49.7102 33.2382 49.7102H32.6946V44.8954H32.617Z" fill="#F0814D"/>
<path d="M69.1902 44.9731V44.3518H64.4531V44.9731H65.9286V55.3792H64.4531V55.9228H69.1902V55.3792H67.6371V44.9731H69.1902Z" fill="#F0814D"/>
<path d="M56.6872 37.2069L58.1626 36.6633C60.2594 35.8091 60.57 35.2655 60.4147 33.8676V28.2763C61.9679 32.3145 63.521 35.1101 66.5497 35.1101C66.938 35.1101 67.4039 35.0325 67.8699 34.9548L69.0347 34.7219L68.1805 33.79C67.6369 33.2464 67.4039 32.7804 67.0933 32.2368C66.938 32.0038 66.8603 31.7709 66.705 31.5379C66.0061 30.373 64.2976 29.9847 62.8998 30.606C62.2785 29.3635 61.6572 27.7327 60.8807 25.7136L60.7254 25.3253C60.57 25.0146 60.4924 24.704 60.3371 24.3934V24.3157C59.8711 23.2285 59.3275 22.219 58.7839 21.2094C58.2403 20.2775 57.6967 19.5009 57.0754 18.802C55.4446 16.9382 53.3479 15.7734 50.7852 15.3074C48.999 14.9968 47.7565 14.9191 46.1257 14.8415C45.8151 14.8415 45.4268 14.8415 45.1162 14.7638C44.4172 14.6862 42.9417 14.6085 41.4662 14.4532C40.4567 14.3755 39.5248 14.2979 38.7482 14.2202C38.8259 13.9872 38.8259 13.7543 38.8259 13.5213C38.8259 13.2107 38.8259 12.9 38.7482 12.6671H48.999C51.6394 12.6671 53.5808 11.5022 54.668 9.17246C57.3084 9.17246 59.1722 7.92994 60.3371 5.67787H60.7254C63.4434 5.67787 65.3848 4.43534 66.5497 1.9503L66.938 1.25138H32.3026C30.0506 1.25138 28.1091 2.72687 27.3325 5.05661V5.13426C26.7113 3.50345 25.7017 2.10561 24.3039 1.25138C22.3624 0.0865127 20.188 -0.301776 18.4796 0.241828C17.936 0.397144 17.3147 0.630117 16.8488 0.940748C16.4605 1.25138 15.8392 1.63967 15.4509 2.18327C14.985 2.72688 14.5967 3.42579 14.286 4.04706C14.0531 4.20237 13.8978 4.35769 13.8201 4.513L13.4318 5.28958V5.36724C12.9659 6.45444 12.3446 7.23102 11.8787 7.85228C11.4127 8.39589 11.4127 8.93949 11.4127 9.25012C11.4904 9.63841 11.6457 9.94904 11.8787 10.182C11.7233 10.415 11.6457 10.7256 11.6457 10.9586C11.6457 11.8905 12.4223 12.5894 13.4318 12.5894C14.1307 12.5894 14.752 12.2788 15.3733 11.8128C15.6062 11.6575 16.3051 11.1916 16.5381 11.1916C16.8488 11.1916 17.0817 11.4245 17.0817 11.7352C17.0817 12.5117 16.1498 12.9 15.4509 12.9L14.0531 13.0554C13.0435 13.133 12.5776 13.6766 12.5776 14.1426C12.5776 14.6085 12.8105 14.9191 12.9659 15.0745L13.0435 15.1521L13.4318 15.4627L11.801 17.9478C10.7138 16.9382 9.47127 16.3946 8.38406 16.317C7.68514 16.317 7.06388 16.4723 6.59793 16.9382C6.44262 17.0936 6.36496 17.1712 6.2873 17.3265C5.12244 17.3265 4.19054 17.9478 3.7246 18.6467C3.18099 19.4233 3.41397 20.7435 4.03523 21.753L0.152344 22.8402V40.8568H69.2677V37.2846H56.6872V37.2069ZM65.6178 32.3145C65.7731 32.5474 65.8508 32.7804 66.0061 32.9357C66.1614 33.1687 66.3167 33.4017 66.472 33.7123C65.3848 33.6346 64.5306 33.0134 63.8317 31.9262C64.4529 31.6155 65.3072 31.8485 65.6178 32.3145ZM50.6299 16.9382C52.8819 17.3265 54.6681 18.3361 56.0659 19.8892C56.3765 20.1999 56.6095 20.5881 56.9201 20.9764C53.1926 20.5105 51.8724 19.9669 49.7756 16.7829C50.0863 16.7829 50.3192 16.8606 50.6299 16.9382ZM48.999 11.5022H41.9322C42.5535 10.9586 43.0194 10.2597 43.4077 9.4831H52.9596C52.183 10.8809 50.8628 11.5022 48.999 11.5022ZM54.5904 8.08526H47.5235C48.1448 7.54165 48.6884 6.84273 49.0767 5.9885H58.6286C57.852 7.38634 56.5318 8.08526 54.5904 8.08526ZM55.134 2.72688H64.6082C63.6763 3.9694 62.4338 4.59066 60.6477 4.59066H53.5808C54.2021 4.04706 54.7457 3.42579 55.134 2.72688ZM16.6158 3.03751C16.8488 2.72688 17.237 2.41624 17.6253 2.10561C17.936 1.87264 18.4019 1.63967 18.8679 1.56201C19.5668 1.40669 20.3433 1.40669 21.1199 1.56201L18.5572 3.11516C18.2466 3.11516 17.936 3.03751 17.6253 3.03751C17.1594 3.03751 16.7711 3.03751 16.4605 3.11516C16.5381 3.11516 16.5381 3.11516 16.6158 3.03751ZM13.6648 14.2202C13.6648 14.1426 13.7424 14.0649 13.8201 14.0649L15.0626 14.1426C16.5381 14.0649 18.0913 13.4436 18.2466 11.8905C18.2466 10.8033 17.47 9.79373 16.4605 9.79373C15.9169 9.79373 15.2179 10.182 14.519 10.648C14.0531 10.9586 13.6648 11.1916 13.4318 11.1916C13.2765 11.1916 13.1212 11.0363 13.1212 10.9586C13.1212 10.9586 13.1212 10.9586 13.1212 10.8809L13.8978 9.79373L13.1988 9.32778C13.0435 9.25012 12.8105 9.01715 12.8105 8.93949C12.8105 8.86183 12.8882 8.78418 12.8882 8.70652C13.1988 8.39589 13.5095 8.0076 13.8201 7.464C14.0531 7.15336 14.1307 6.99805 14.4414 6.99805C14.752 6.99805 15.0626 7.23102 15.0626 7.61931C15.0626 7.85228 15.2956 8.0076 15.6062 8.0076C15.9169 8.0076 16.0722 7.77463 16.2275 7.61931C16.2275 7.61931 16.9264 6.99805 16.5381 6.68742C16.1498 6.37679 14.4414 7.07571 14.9073 5.52255L15.0626 5.28958C15.2179 5.05661 16.0722 4.43534 17.703 4.43534C18.0136 4.43534 18.3242 4.43534 18.7125 4.513H18.9455L22.5178 2.33859C22.5178 2.41624 22.5954 2.4939 22.5954 2.4939C22.7507 3.58111 22.1295 4.82363 21.0423 5.44489L20.5763 5.67787L20.887 7.30868C19.9551 7.61931 19.3338 8.31823 19.3338 9.17246C19.3338 9.4831 19.4115 9.87138 19.4891 10.2597C19.5668 10.8033 19.7221 11.3469 19.7221 11.8905C19.7221 13.599 17.3924 14.6862 15.4509 14.6085H15.3733C15.2956 14.6085 14.0531 14.5308 13.7424 14.2979C13.6648 14.3755 13.6648 14.2979 13.6648 14.2202ZM4.81181 19.5009C5.12244 19.035 5.7437 18.7244 6.52028 18.802L7.14154 18.8797L7.37451 18.3361C7.45217 18.1808 7.52983 18.0254 7.60748 17.9478C7.7628 17.7925 8.07343 17.7148 8.38406 17.7148C9.2383 17.7148 10.3255 18.3361 11.1797 19.268C11.4904 19.5786 11.801 20.0445 12.034 20.4328C12.1116 20.5105 12.1116 20.5881 12.1893 20.6658C12.2669 20.7435 12.3446 20.8988 12.3446 20.8988C12.3446 20.9764 12.8105 21.5977 12.8105 21.6754C13.1212 21.2871 13.4318 20.8211 13.6648 20.4328V20.3552C13.5871 20.1999 13.4318 19.9669 13.3542 19.8116L13.2765 19.7339C13.2765 19.7339 13.1988 19.6563 13.1988 19.5786C13.1212 19.4233 12.9659 19.1903 12.8882 19.1127L14.752 16.1617C15.2179 16.2393 15.6062 16.2393 15.8392 16.2393H15.9169C18.5572 16.2393 21.2752 14.6862 21.2752 12.2011V12.1235C21.2752 11.4245 21.1199 10.8033 21.0423 10.2597C20.9646 9.87138 20.887 9.56075 20.887 9.40544C20.887 9.09481 21.2752 8.78418 21.8188 8.78418H22.6731L22.2848 6.60976C23.4497 5.75553 24.2262 4.28003 24.1486 2.95985C25.4688 3.9694 26.323 5.67787 26.4783 7.464C26.556 8.0076 26.4006 8.70652 26.2453 9.4831L26.1677 9.79373C25.857 11.0363 25.3911 12.3564 25.1581 12.9777L24.9252 13.5213L25.4688 13.8319C26.4006 14.3755 27.0219 14.7638 27.0219 16.0063C27.0219 17.4818 25.7017 18.569 24.4592 18.802L22.6731 19.1127L24.1486 20.1222C24.6145 20.4328 24.9252 20.9764 24.9252 21.52C24.9252 22.4519 24.1486 23.1509 23.2167 23.1509H22.6731L22.5178 23.6168C21.9742 25.3253 21.4306 26.1795 19.5668 26.4125C19.5668 25.8689 19.5668 25.3253 19.5668 24.6263C19.5668 24.471 19.5668 24.0051 19.5668 23.8498L19.4891 22.219L18.3242 23.3838C17.936 23.7721 17.237 24.0827 16.4605 24.2381V22.8402L8.3064 20.6658L5.43307 21.4424C4.81181 20.8211 4.65649 19.7339 4.81181 19.5009ZM2.48207 37.2069L8.38406 35.6537L14.286 37.2069H2.48207ZM15.0626 35.9644L8.3064 34.1782L1.55018 35.9644V23.9274L8.3064 22.1413L15.0626 23.9274V35.9644ZM18.2466 33.6346C17.6253 34.4889 17.5477 35.7314 18.0136 37.2069H16.5381V25.7136C17.0817 25.6359 17.6253 25.4806 18.1689 25.2476C18.1689 25.7136 18.0913 26.1795 18.0136 26.6455C18.0136 26.8008 17.936 26.8784 17.936 27.0337L17.7806 27.888H18.6349C19.8774 27.888 20.8093 27.655 21.5859 27.3444V32.1591C21.5859 32.3145 21.5082 32.3921 21.3529 32.3921H21.1199C19.8774 32.3145 18.7902 32.7804 18.2466 33.6346ZM33.7781 33.9453C33.2345 34.5665 32.7686 35.5761 33.0792 37.2069H24.3039C25.2358 37.1292 25.9347 36.8963 26.4006 36.4303C26.9443 35.8091 27.0219 35.0325 27.0219 34.4112C27.0219 34.3336 27.0996 34.1782 27.5655 33.9453L28.3421 33.6346L27.8761 32.9357C27.0996 31.7709 27.4879 29.2858 27.7208 27.888H27.7985C30.7495 27.888 32.6909 27.2667 34.71 26.6455C35.2536 26.4901 35.7972 26.3348 36.3408 26.1018C36.3408 26.1018 36.9621 25.9465 37.7387 25.7136L40.612 30.4507V30.5283C40.9226 30.9166 40.9226 31.2273 40.379 31.7709L38.9812 33.324L36.6515 32.8581C35.6419 32.7028 34.4771 33.1687 33.7781 33.9453ZM34.5547 37.2069C34.3217 36.1973 34.3994 35.4208 34.8653 34.8772C35.3313 34.3336 35.9525 34.2559 36.4962 34.2559L39.2142 34.7219H39.2918H39.6801L41.6216 32.6251C41.9322 32.2368 42.9417 31.0719 41.9322 29.5964L39.3695 25.4029C39.7578 25.3253 40.2237 25.3253 40.612 25.3253C40.612 25.3253 41.9322 25.3253 43.33 26.1018C43.4853 26.4901 43.796 27.0337 44.0289 27.655C44.5726 28.7422 45.2715 30.14 45.4268 30.6837C45.5044 30.839 45.6598 31.3826 45.0385 32.0815L40.1461 37.2846H34.5547V37.2069ZM51.3288 37.2069H42.0098L45.9704 33.0134C46.747 32.1591 47.0576 31.1496 46.6693 30.2177C46.514 29.6741 45.9704 28.5869 45.4268 27.422C46.9799 28.1209 49.3873 28.8199 54.2798 29.2082C54.901 29.2858 55.0563 29.4411 55.134 29.9847L55.367 32.0815L52.8043 32.6251C51.95 32.7804 51.2511 33.324 50.9405 34.1782C50.6299 35.1101 50.7852 36.1973 51.3288 37.2069ZM52.3383 34.7219C52.4936 34.3336 52.7266 34.1006 53.1149 34.0229L56.9201 33.1687L56.6095 29.7518V29.6741C56.5318 29.2082 56.2212 27.888 54.4351 27.7327C47.6012 27.1891 46.048 26.1795 44.3396 25.0923L44.2619 25.0146C42.4758 23.8498 40.6897 23.8498 40.5344 23.8498C38.5929 23.8498 36.1855 24.6264 35.9525 24.704C35.3313 24.8593 34.7877 25.0923 34.2441 25.2476C32.0697 25.9465 30.2835 26.5678 27.1772 26.4125H26.6336L26.4783 26.9561C26.4007 27.3444 25.4688 30.839 26.323 33.0134C25.5464 33.6346 25.5464 34.2559 25.5464 34.4112C25.5464 35.1878 25.3911 35.3431 25.3134 35.4208C24.9252 35.8091 23.7603 35.8091 22.7507 35.8091H22.3624L22.1295 36.1197C21.5082 36.9739 20.188 37.2069 19.3338 36.9739C18.9455 35.8091 18.9455 34.9548 19.3338 34.4112C19.7997 33.79 20.654 33.7123 21.0423 33.7123H21.2752C22.2071 33.7123 22.9061 32.9357 22.9061 32.0815V25.9465C23.2167 25.5582 23.372 25.0146 23.605 24.471C25.0805 24.2381 26.2453 22.9955 26.2453 21.4424C26.2453 20.8211 26.09 20.2775 25.7794 19.8116C27.1772 19.1127 28.3421 17.7925 28.3421 16.0063C28.3421 14.2202 27.4102 13.366 26.556 12.9C26.7889 12.2011 27.1772 11.0363 27.4879 9.79373L28.6527 5.52255C29.1963 3.81408 30.5942 2.72688 32.225 2.72688H53.3479C52.416 3.9694 51.1735 4.59066 49.3873 4.59066H36.7291L36.0302 5.9885H47.5235C46.5917 7.38634 45.2715 8.08526 43.4077 8.08526H35.0983L34.3994 9.4831H41.7769C40.845 10.8809 39.6025 11.5022 37.7387 11.5022H33.2345L32.5356 12.9H37.2727C37.3504 12.9777 37.428 13.2107 37.428 13.7543C37.428 14.6862 36.6515 15.3851 35.7196 15.3851C35.4089 15.3851 35.0983 15.3074 34.6324 15.0745C34.3994 14.9968 34.2441 14.9191 34.0111 14.8415L32.9239 15.851C33.1569 15.9287 33.3122 16.0063 33.5452 16.084C34.4771 16.4723 35.0207 16.7053 35.7196 16.7053C36.5738 16.7053 37.3504 16.317 37.9716 15.7734C38.7482 15.851 40.0684 15.9287 41.3886 16.0063C42.9417 16.1617 44.3396 16.2393 45.1162 16.317C45.5044 16.317 45.8151 16.317 46.2034 16.3946C46.8246 16.3946 47.4459 16.4723 47.9895 16.4723C50.8628 21.1318 52.3383 21.753 57.9297 22.4519C58.318 23.1509 58.7063 23.9274 59.0169 24.704V33.79V33.8676C59.0169 34.2559 59.0169 34.4112 59.0169 34.4889C58.7839 34.7219 57.9297 35.1101 57.6967 35.1878L52.9596 37.1292C52.3383 36.275 52.1053 35.4208 52.3383 34.7219Z" fill="#F0814D"/>
<path d="M13.5862 25.7913L9.08203 24.6265V26.102L13.5862 27.2668V25.7913Z" fill="#F0814D"/>
<path d="M3.10547 27.2668L7.60962 26.102V24.6265L3.10547 25.7913V27.2668Z" fill="#F0814D"/>
<path d="M3.10547 30.2173L7.60962 29.0524V27.5769L3.10547 28.7418V30.2173Z" fill="#F0814D"/>
<path d="M13.5862 28.7418L9.08203 27.5769V29.0524L13.5862 30.2173V28.7418Z" fill="#F0814D"/>
<path d="M13.5862 31.6929L9.08203 30.5281V32.0036L13.5862 33.1684V31.6929Z" fill="#F0814D"/>
<path d="M3.10547 33.1684L7.60962 32.0036V30.5281L3.10547 31.6929V33.1684Z" fill="#F0814D"/>
</g>
</svg>
