<svg xmlns="http://www.w3.org/2000/svg" width="196" height="41" viewBox="0 0 196 41">
  <g fill="none" fill-rule="evenodd">
    <path fill="#2E3144" d="M43.8691853,33.0278222 C45.4960001,31.3434667 46.3078378,29.3476761 46.3078378,27.0454134 C46.3078378,24.7431508 45.491605,22.7603883 43.856,21.1014688 C42.2210229,19.4431696 40.2400887,18.6161914 37.9056629,18.6161914 C35.5404714,18.6161914 33.5432125,19.4599201 31.9157699,21.1523407 C30.2933502,22.8503447 29.4821404,24.8455149 29.4821404,27.1521203 C29.4821404,29.4376325 30.2977453,31.4123299 31.9327224,33.0662863 C33.5645601,34.7245854 35.5580518,35.5559063 37.9056629,35.5559063 C40.2570412,35.5559063 42.2423706,34.7121776 43.8691853,33.0278222 Z M44.676,15.5378224 C46.7686954,16.7351727 48.4262758,18.3562486 49.6474857,20.4066334 C50.8649283,22.4576386 51.4727078,24.6879362 51.4727078,27.0962853 C51.4727078,29.4885043 50.8649283,31.7057737 49.6474857,33.7480935 C48.4262758,35.7904133 46.7686954,37.4108687 44.676,38.6044967 C42.5833047,39.8030878 40.3091546,40.3999017 37.8535496,40.3999017 C35.415525,40.3999017 33.1583274,39.8074305 31.0832124,38.6175248 C29.0074696,37.4325823 27.3630745,35.8164696 26.1550499,33.7735295 C26.1311908,33.7338246 26.1110989,33.6916381 26.0878677,33.6513129 C23.4815736,36.7737295 19.2742074,40.3999017 13.510976,40.3999017 C11.0773465,40.3999017 8.82077673,39.8074305 6.74503393,38.6175248 C4.66866326,37.4325823 3.02489597,35.8164696 1.81247633,33.7735295 C0.604451782,31.7312097 -0.000188361412,29.5058752 -0.000188361412,27.0962853 C-0.000188361412,24.6879362 0.595661583,22.4619813 1.7867336,20.4196615 C2.98220072,18.3816845 4.61341058,16.756266 6.6885255,15.5502302 C8.7642683,14.3479168 11.0384185,13.7467601 13.510976,13.7467601 C15.8805626,13.7467601 18.0856469,14.3137954 20.1268568,15.4478661 C21.0454326,15.9596868 21.8823852,16.5496765 22.6364587,17.2184556 L19.4161064,21.0127532 C18.8880665,20.4996917 18.28531,20.0530118 17.606581,19.6733339 C16.3464431,18.969813 14.9783114,18.6161914 13.510976,18.6161914 C11.1809453,18.6161914 9.20440614,19.4599201 7.57759139,21.1523407 C5.95077663,22.8503447 5.13893893,24.8455149 5.13893893,27.1521203 C5.13893893,29.454383 5.95956683,31.4334231 7.60333411,33.0786941 C9.24772927,34.7289281 11.2500111,35.5559063 13.6189699,35.5559063 C19.1599348,35.5559063 23.1481739,29.4866432 24.3511754,27.5094642 C24.3474082,27.3723583 24.338618,27.2358728 24.338618,27.0962853 C24.338618,24.6879362 24.9338401,22.4619813 26.1293072,20.4196615 C27.3203792,18.3816845 28.9553563,16.756266 31.031727,15.5502302 C33.1068419,14.3479168 35.3809921,13.7467601 37.8535496,13.7467601 C40.3091546,13.7467601 42.5833047,14.3435741 44.676,15.5378224 Z M70.7493011,14.2155879 L76.393237,14.2155879 L65.8211386,39.691852 L60.2330833,39.691852 L49.5781059,14.2155879 L55.2226696,14.2155879 L62.934186,33.2497352 L70.7493011,14.2155879 Z M79.8546919,24.7428406 L95.5966833,24.7428406 C95.2770968,22.9437132 94.3968211,21.4473355 92.9602514,20.2530872 C91.5186587,19.0551165 89.7926402,18.4583025 87.7771731,18.4583025 C85.8182144,18.4583025 84.1267288,19.0427087 82.7027165,20.2102803 C81.2824715,21.3834355 80.3337578,22.8928413 79.8546919,24.7428406 Z M97.1851979,17.7243826 C98.3329468,18.9273164 99.2389652,20.3424231 99.898858,21.9672213 C100.563146,23.5920194 100.895918,25.28444 100.895918,27.0457236 C100.895918,27.5190802 100.861385,28.1028661 100.787924,28.8020442 L79.668842,28.8020442 C80.039914,30.8058999 80.9898834,32.4604767 82.5168666,33.7608115 C84.0444777,35.0617667 85.8866523,35.7144157 88.0402512,35.7144157 C89.4730537,35.7144157 90.8323952,35.4067029 92.1226709,34.7974811 C93.4129466,34.1832962 94.4577246,33.3308821 95.251354,32.2303124 L98.9583067,35.031988 C97.7590724,36.7076581 96.1963005,38.0204007 94.2718747,38.972077 C92.3430538,39.9225126 90.267311,40.3995915 88.0402512,40.3995915 C84.2818131,40.3995915 81.0884592,39.1166276 78.4652126,36.5494589 C75.8407102,33.9829107 74.5297147,30.8313358 74.5297147,27.0965955 C74.5297147,24.7260901 75.0860088,22.5218488 76.1998526,20.4882145 C77.3124407,18.4539598 78.8833749,16.8204762 80.9157946,15.5927268 C82.944447,14.3606348 85.2142021,13.7464499 87.7256876,13.7464499 C89.598628,13.7464499 91.3547842,14.108757 92.9991794,14.8296487 C94.6429467,15.5542627 96.0368211,16.5220692 97.1851979,17.7243826 Z M154.946603,20.2104665 C153.526986,21.3836216 152.578272,22.892407 152.099206,24.7430267 L167.841197,24.7430267 C167.521611,22.9432789 166.641335,21.4469012 165.204765,20.2526529 C163.763173,19.0553026 162.037154,18.4584886 160.021687,18.4584886 C158.062728,18.4584886 156.371243,19.0422744 154.946603,20.2104665 Z M167.495868,32.2304986 L171.202821,35.0321742 C170.002959,36.7078442 168.440815,38.0205868 166.516389,38.9716427 C164.624612,39.904087 162.591565,40.3786844 160.413479,40.3966757 L160.415362,40.3997777 L144.808363,40.3997777 C142.672345,40.3997777 140.997812,39.773185 139.785392,38.5280648 C138.57674,37.2792222 137.972728,35.5049104 137.972728,33.198305 L137.972728,18.6415033 L126.416755,18.6415033 L126.416755,39.6919141 L121.143263,39.6919141 L121.143263,18.6415033 L118.182849,18.6415033 L118.182849,18.6669392 C111.655499,18.6669392 108.141302,21.579044 108.141302,26.4956249 L108.141302,39.6919141 L102.945667,39.6919141 L102.945667,14.2156499 L108.141302,14.2156499 L108.141302,17.2809908 C109.340537,15.865884 110.657183,14.9235135 112.089358,14.4501569 C113.518393,13.981143 115.550813,13.746636 118.182849,13.746636 L121.143263,13.746636 L121.143263,8.32754027 C121.143263,5.76037161 121.789971,3.73108 123.080874,2.23842466 C124.366755,0.74576932 126.365269,6.20388743e-05 129.065744,6.20388743e-05 L133.359757,6.20388743e-05 L133.359757,4.84343704 L130.261839,4.84343704 C128.987888,4.84343704 128.030384,5.17224308 127.383049,5.82427166 C126.740109,6.48064296 126.416755,7.58493494 126.416755,9.1371476 L126.416755,13.746636 L137.972728,13.746636 L137.972728,6.20388743e-05 L143.189711,6.20388743e-05 L143.189711,31.6032855 C143.189711,33.0152903 143.414489,34.0296259 143.867184,34.6394681 C144.316112,35.2493102 145.153065,35.5557823 146.370507,35.5557823 C146.567659,35.5557823 147.994811,35.5539211 149.779849,35.5501988 C147.776311,33.1778322 146.773601,30.3600265 146.773601,27.0967816 C146.773601,24.7256558 147.330523,22.522035 148.443739,20.4877802 C149.556955,18.4541459 151.127889,16.8206623 153.160309,15.592913 C155.188961,14.3602005 157.458716,13.746636 159.970202,13.746636 C161.842514,13.746636 163.599298,14.1089431 165.243066,14.8292144 C166.887461,15.5544489 168.281335,16.5222553 169.429084,17.7245687 C170.577461,18.9275025 171.483479,20.3426093 172.143372,21.9674074 C172.80766,23.5915852 173.140432,25.2846261 173.140432,27.0459097 C173.140432,27.518646 173.105899,28.1030522 173.032438,28.8022303 L151.913356,28.8022303 C152.284428,30.806086 153.233142,32.4606628 154.761381,33.7609976 C156.288992,35.0613324 158.131166,35.7139814 160.284765,35.7139814 C161.717568,35.7139814 163.076909,35.406889 164.367185,34.7976672 C165.657461,34.182862 166.702239,33.3304478 167.495868,32.2304986 Z M188.390549,14.2155879 L194.246077,14.2155879 L186.143397,25.8329877 L182.957578,30.4734956 L176.053504,40.3997156 L170.227485,40.3997156 L180.040487,26.2864919 L171.66845,14.2155879 L177.523979,14.2155879 L182.957578,22.0994882 L188.390549,14.2155879 Z"/>
    <polygon fill="#F2824E" points="184.457 32.687 189.761 40.4 195.565 40.4 190.171 32.687"/>
  </g>
</svg>
