<svg xmlns="http://www.w3.org/2000/svg" width="65" height="54" viewBox="0 0 65 54">
  <path fill="#CBCBCB" fill-rule="evenodd" d="M20.8865576 13.1181992C21.5901096 14.3247743 21.4275122 16.2168723 20.5164011 17.4256366 20.1250362 17.9450468 19.6315883 18.290408 19.0892199 18.4395537 18.2567211 21.0360573 16.4525967 22.9730358 15.0177805 24.1793372L15.0180633 24.1793372C14.0079798 25.0285099 12.7165321 25.4781363 11.4072694 25.4781363 10.8205048 25.4781363 10.2303469 25.3878279 9.65998342 25.2025588 6.90940063 24.3093265 3.56554934 22.0507954 2.12394647 18.3424038 1.57761914 18.1253899 1.08247465 17.6888993.697613627 17.0698762.0285605903 15.9930169-.339333746 14.2714102.434064417 13.0369217.699593073 12.6130195 1.3002138 11.9444636 2.49862748 11.8708486L2.08464031 3.97296787 2.55263811 3.62268071C12.8010828-4.03985082 18.9868542 2.82304081 19.0476515 2.89309824L19.3112007 3.19522092 19.3858541 11.921476C20.020691 12.1185125 20.5421339 12.5273633 20.8865576 13.1181992zM18.6888061 16.1355947C19.0756465 15.6222051 19.188475 14.6605574 18.9164425 14.1942376 18.8819435 14.1351266 18.8364163 14.0585013 18.7170839 14.0136208 18.4241257 14.3179328 18.0570797 14.7237733 17.8659217 15.0190544 17.5347886 15.531623 16.8374577 15.6873366 16.306966 15.3666049 15.7776053 15.0458733 15.6169873 14.3704758 15.9484033 13.8579072 16.1353196 13.568373 16.3963238 13.2509252 16.649693 12.9657696 13.3394923 10.4415128 9.92749152 11.7635731 6.8890406 12.9433293 6.36957719 13.1452918 5.87584659 13.3357604 5.40077935 13.5021468L5.83682321 14.2057314C6.15805916 14.7243206 5.98415061 15.3967077 5.44856885 15.7075876 5.26617696 15.8132211 5.06568727 15.8635748 4.86774259 15.8635748 4.48344712 15.8635748 4.10848333 15.6739272 3.89639974 15.3315762L3.09726877 14.041808C3.03618869 14.0459129 2.97454306 14.0538491 2.91402855 14.0557647L2.86199737 14.0574067 2.81081453 14.0543964C2.38919235 14.0286722 2.34479619 14.1447048 2.29474446 14.3682865 2.12762259 15.115657 2.64256155 16.1566667 2.96210083 16.308549L3.80817297 16.2614791 4.06861162 17.082191C5.11206289 20.3696907 8.12053932 22.39342 10.3796537 23.1271074 11.4663701 23.4801312 12.6743982 23.2497079 13.5340437 22.5266933 14.8554659 21.4156262 16.5467618 19.5840076 17.1001586 17.1656579L17.3410855 16.1126071 18.4328919 16.3301683C18.5191392 16.3460407 18.6511966 16.1856748 18.6888061 16.1355947zM17.056328 4.04630924C15.9662183 3.05729535 11.5924891-.0911841252 4.40426925 5.01370385L4.73936132 11.4053498C5.15674183 11.2570251 5.59702737 11.0862601 6.04692736 10.9116638 9.09470995 9.72780271 13.1112904 8.17011951 17.1120353 10.5964054L17.056328 4.04630924zM9.82891507 19.2345687C9.59420923 20.0251778 11.9508821 20.9621959 11.5391572 21.1463704 11.1274322 21.3305448 7.304272 20.8346695 7.30568589 18.7764588 7.42925993 17.8785743 8.46309674 17.2677611 9.31906612 17.4278533 10.1671177 17.5865771 10.3164246 18.3552933 9.82891507 19.2345687zM14.3143134 8.17923245C13.6947465 8.10424911 13.2547437 7.55719909 13.3322249 6.95733233 13.3842561 6.55395478 13.4006572 6.14154639 13.413665 5.81041556 13.4218656 5.6079058 13.4292178 5.43166757 13.4410945 5.29319468 13.4925601 4.69059131 14.0434119 4.24123857 14.6612821 4.29186601 15.2839595 4.34167246 15.7468673 4.87011348 15.6956845 5.47271685 15.68607 5.58546553 15.68098 5.72941166 15.6744761 5.89415608 15.6594889 6.26743083 15.6411083 6.73183498 15.5769177 7.22853122 15.5056576 7.78242278 15.0181481 8.18771597 14.4559852 8.18771597 14.4093268 8.18771597 14.3621029 8.18497935 14.3143134 8.17923245zM11.2291475 8.08662528C10.6044906 8.08662528 10.098035 7.59649693 10.098035 6.99197792L10.098035 5.07634504C10.098035 4.47182604 10.6044906 3.98169768 11.2291475 3.98169768 11.8538044 3.98169768 12.36026 4.47182604 12.36026 5.07634504L12.36026 6.99197792C12.36026 7.59649693 11.8538044 8.08662528 11.2291475 8.08662528zM6.71657423 7.97092106L6.46914337 6.32895002C6.37893715 5.73072523 6.80678045 5.1751917 7.4252162 5.08789357 8.04280362 4.99867981 8.61769154 5.41491947 8.70761498 6.01314425L8.95504584 7.65511529C9.04525206 8.25334008 8.61740876 8.80887361 7.99897301 8.89617174 7.94383128 8.90410793 7.88868954 8.90766554 7.83439614 8.90766554 7.28184769 8.90766554 6.79857988 8.51578178 6.71657423 7.97092106zM26.737039 40.5242285C26.737039 41.9812041 25.3599096 43.0142775 23.4169411 43.0142775 22.0760072 43.0142775 21.0814766 42.3782874 21.0814766 41.2923972L21.0814766 41.2398542C21.0814766 39.9681476 22.2400186 39.2798881 24.0186929 39.2798881 25.0321697 39.2798881 25.8887047 39.4917023 26.737039 39.8091501L26.737039 40.5242285zM24.0008779 31.175119C26.271869 31.175119 27.8503365 31.7574714 28.8901116 32.763726 29.9853113 33.8233446 30.4131546 35.3865011 30.4131546 37.2928294L30.4131546 43.7561748C30.4131546 44.8415176 29.5419152 45.689322 28.4198516 45.689322 27.2157824 45.689322 26.4542609 44.8683365 26.4542609 44.0205321L26.4542609 43.9942606C25.6059265 45.0804244 24.1151203 45.7955028 22.0898634 45.7955028 19.3254245 45.7955028 17.1225829 44.2591652 17.1225829 41.4513948L17.1225829 41.3983044C17.1225829 38.299905 19.4755796 36.8689272 22.9514883 36.8689272 24.4292868 36.8689272 25.6059265 37.107834 26.4542609 37.4523743L26.4542609 37.2137412C26.4542609 35.5446776 25.4328663 34.6177849 23.3527505 34.6177849 22.2026918 34.6177849 21.3184447 34.7773298 20.5246865 35.0148683 20.2786695 35.0947775 20.1138099 35.1207754 19.9223691 35.1207754 18.9645996 35.1207754 18.1985536 34.405697 18.1985536 33.4788044 18.1985536 32.763726 18.6637237 32.1545547 19.3206172 31.9164689 20.6344044 31.4394763 22.0573439 31.175119 24.0008779 31.175119zM19.5952231 28.8600219C19.5952231 29.8930954 18.719742 30.7759285 17.6522546 30.7759285L13.4464956 30.7759285 13.4464956 43.6500761C13.4464956 44.7885093 12.502865 45.6894041 11.3259424 45.6894041 10.1490199 45.6894041 9.20482375 44.7885093 9.20482375 43.6500761L9.20482375 30.7759285 5.33613627 30.7759285C4.26864886 30.7759285 3.39345057 29.8930954 3.39345057 28.8600219 3.39345057 27.8269485 4.26864886 26.9446627 5.33613627 26.9446627L6.482236 26.9446627 6.55660664 26.9660083C7.95946891 27.0100679 9.0750286 27.8414526 11.567435 27.8414526 14.0598413 27.8414526 15.6733733 26.9446627 15.6733733 26.9446627L17.6522546 26.9446627C18.719742 26.9446627 19.5952231 27.8269485 19.5952231 28.8600219zM38.7370114 36.9487818C40.7888495 37.6107698 43.1381701 38.5647549 43.1381701 41.1601638L43.1381701 41.2132542C43.1381701 44.3652913 40.693836 45.7954481 37.519086 45.7954481 35.7126994 45.7954481 33.760682 45.292184 31.9820076 44.1794749 31.5439843 43.9145703 31.1907944 43.438125 31.1907944 42.8024085 31.1907944 41.9020611 31.9084853 41.2132542 32.8391081 41.2132542 33.1402668 41.2132542 33.4527366 41.2923425 33.6718897 41.4250685 35.0676825 42.2723256 36.4872287 42.6962277 37.6641512 42.6962277 38.8682205 42.6962277 39.4620545 42.2723256 39.4620545 41.6371564L39.4620545 41.584066C39.4620545 40.7099901 37.9299626 40.4188139 36.3155824 39.9418213 34.2623304 39.3589216 31.8270452 38.4320289 31.8270452 35.6776225L31.8270452 35.6245321C31.8270452 32.7373997 34.2993743 31.1214265 37.2549713 31.1214265 38.7876287 31.1214265 40.4384874 31.5193309 41.8619924 32.2081377 42.4637443 32.4993139 42.8497364 33.0291232 42.8497364 33.7173828 42.8497364 34.6177302 42.1159272 35.3065371 41.1850216 35.3065371 40.8844285 35.3065371 40.7037332 35.2537203 40.4297212 35.1207207 39.2527987 34.5654608 38.1516607 34.2206469 37.2756141 34.2206469 36.2635512 34.2206469 35.7859389 34.6445491 35.7859389 35.2006299L35.7859389 35.2537203C35.7859389 36.047887 37.1489295 36.4195198 38.7370114 36.9487818zM61.8541229 31.081253C62.9216103 31.0984937 63.7727724 31.950403 63.7552402 32.9837501L63.5671927 43.7427654C63.5671927 49.1563439 59.0481156 53.5872027 53.4923738 53.5872027 51.8067334 53.5872027 50.2565438 53.2429361 48.8825249 52.5637075 47.931542 52.0935564 47.5560127 50.966617 48.0418255 50.0462922 48.5279211 49.1248728 49.6997536 48.7622708 50.6476259 49.2307799 51.4719241 49.6382624 52.4398736 49.8448771 53.5084922 49.8448771 56.2607716 49.8448771 58.6148995 48.0647068 59.4264727 45.6094128L59.3888632 45.6102338C54.0409634 45.6102338 51.0559575 42.682873 51.0559575 37.5779851L51.0559575 35.1544358 49.0765107 35.1544358 49.0765107 44.4389611C49.0765107 45.4725818 48.1651168 46.3099871 47.0970638 46.3099871 46.0290108 46.3099871 45.1176169 45.4725818 45.1176169 44.4389611L45.1176169 35.0830101C43.9865045 35.0830101 43.1842629 34.2453312 43.1842629 33.2119841 43.1842629 32.178637 43.9865045 31.3406844 45.1176169 31.3406844L45.1176169 31.1116295C45.1176169 30.0782823 46.0290108 29.2403298 47.0970638 29.2403298 48.1651168 29.2403298 49.0765107 30.0782823 49.0765107 31.1116295L49.0765107 31.3231701 52.8518814 31.3231701C53.9199343 31.3231701 54.7320731 32.178637 54.7320731 33.2119841L54.7320731 37.5779851C54.7320731 40.6648906 56.023238 41.8679081 59.2695308 41.8679081L59.7318731 41.8627085 59.8876838 32.9205342C59.9060644 31.8871871 60.7939877 31.0374671 61.8541229 31.081253zM28.0798109 28.2134958C24.2823835 28.2134958 21.3643961 25.5469349 21.3643961 21.6316549L21.3643961 21.5834904C21.3643961 21.1387899 21.4045506 20.7047623 21.4811835 20.2852387 22.3258417 19.6864665 23.0466432 18.7412385 23.4512986 17.5710605 23.5839216 17.1876603 23.6701689 16.8045337 23.7219173 16.427154 24.7942119 15.5547201 26.1767142 15.0336679 27.7565955 15.0336679 31.9270073 15.0336679 33.9768659 18.4046345 33.9768659 21.3350055 33.9768659 22.1513387 33.3307179 22.8398719 32.5612786 22.8398719L24.3462914 22.8398719C24.6683757 24.2081811 26.2064059 25.8000721 28.1423049 25.8000721 31.3051782 25.8000721 33.2385322 23.4482222 34.903247 21.6316549 35.9927911 20.4425942 38.0828042 20.0860128 39.6454361 20.0860128 41.1950602 20.0860128 42.2899771 20.338329 43.1383115 20.5931082L43.1383115 20.3583064C43.1383115 18.5879879 42.0216207 17.6520644 39.9333043 17.6520644 38.8765624 17.6520644 37.8859907 17.8162615 37.0028746 18.1531393 36.8151099 18.2056823 36.6776797 18.2286699 36.5278073 18.2286699 35.7976742 18.2286699 35.2123235 17.6649265 35.2123235 16.9714674 35.2123235 16.4512363 35.5686239 15.9556347 36.0728173 15.7662607 37.4985846 15.2413773 38.7691067 15.0177955 40.3161858 15.0177955 42.2402082 15.0177955 43.6736105 15.5133971 44.6183722 16.4517836 45.5673756 17.3472051 45.9660927 18.67857 45.9660927 20.4064708L45.9660927 26.6517077C45.9660927 27.464757 45.3227725 28.1012945 44.4690653 28.1012945 43.6150754 28.1012945 42.9726035 27.5389194 42.9726035 26.8202834 41.8035987 27.9841672 40.5551333 28.2455143 38.822269 28.2455143 36.8312283 28.2455143 35.1585957 27.1812434 34.5740933 25.578406 34.378128 25.7524549 32.5044402 28.2134958 28.0798109 28.2134958zM46.8534787 17.3665257C46.1196695 17.3665257 45.5374293 16.8454735 45.5374293 16.135321 45.5374293 15.4248949 46.1196695 14.9035691 46.8534787 14.9035691L47.3797288 14.9035691 47.3797288 14.3313422C47.3797288 13.5232188 48.0875225 12.8623254 48.9477335 12.8623254 49.7827773 12.8623254 50.4902882 13.5232188 50.4902882 14.3313422L50.4902882 14.9035691 52.8254699 14.9035691C53.5592791 14.9035691 54.1664037 15.4248949 54.1664037 16.135321 54.1664037 16.8454735 53.5592791 17.3665257 52.8254699 17.3665257L50.4902882 17.3665257 50.4902882 23.7836222C50.4902882 24.9343702 51.0631966 25.3995953 52.1004268 25.3995953 52.4550305 25.3995953 52.7242353 25.3262539 52.8254699 25.3262539 53.5086618 25.3262539 54.1186142 25.8650941 54.1186142 26.550617 54.1186142 27.0894572 53.741671 27.5303264 53.3115655 27.7019124 52.653258 27.9222102 52.0260561 28.044537 51.2161796 28.044537 48.9641346 28.044537 47.3797288 27.0894572 47.3797288 24.2488473L47.3797288 17.3665257 46.8534787 17.3665257zM40.1629201 22.2375422C38.2722656 22.2375422 37.3837767 23.0027007 37.3837767 24.1285455 37.3837767 25.2924293 38.2207999 26.0192752 39.7152823 26.0192752 41.7088681 26.0192752 42.8555334 25.1170121 42.8555334 23.9014062L42.8555334 23.0254147C42.2899771 22.5344653 41.4750106 22.2375422 40.1629201 22.2375422zM27.8329456 17.3277751C25.9965845 17.3277751 24.594005 19.0086062 24.3211241 20.3769154L31.0475673 20.3769154C30.8490571 19.0086062 29.8186136 17.3277751 27.8329456 17.3277751z" transform="translate(.9)"/>
</svg>
