<svg xmlns="http://www.w3.org/2000/svg" width="136" height="54" viewBox="0 0 136 54">
  <g fill="#CBCBCB" transform="translate(.745 13.655)">
    <path d="M24.5031279,0.707640495 L1.51039182,0 C0.6061831,0 -0.104266611,0.707640495 0.024906064,1.67260481 L3.9000863,30.0425555 C4.02925898,31.0075199 4.73970869,31.2648437 5.51474474,30.750196 L8.61488893,28.5629436 C9.38992497,28.048296 10.4878927,27.5979793 11.7150331,27.6623102 C12.9421735,27.7266412 22.3717788,28.3699507 22.3717788,28.3699507 C23.3405738,28.4342817 24.1156099,27.7266412 24.2447826,26.7616769 L26.0532,2.50890721 C26.1823727,1.5439429 25.471923,0.771971449 24.5031279,0.707640495 Z M24.0510235,3.40954056 L22.6301241,25.8610435 C22.6301241,26.2470293 22.3071924,26.5043531 21.9196744,26.3756912 L14.6214183,24.8317483 C13.5880369,24.6387554 12.8775872,24.0597768 12.7484145,23.0304816 L10.8754107,6.24010254 C10.8108244,5.85411682 11.1337561,5.46813109 11.4566878,5.40380014 L23.3405738,2.89489293 C23.7926782,2.83056198 24.0510235,3.02355484 24.0510235,3.40954056 Z"/>
    <path d="M30.1618195,5.40380014 L28.8055064,16.4687242 C28.7409201,16.790379 28.9992655,17.1120338 29.3867835,17.1120338 L32.745273,17.1120338 C33.0036184,17.1120338 33.132791,17.0477028 33.1973774,16.790379 L34.6182768,5.46813109 C34.6182768,5.21080728 34.4245178,5.01781442 34.1661724,5.01781442 L30.6785102,5.01781442 C30.4201649,4.95348346 30.2264059,5.14647632 30.1618195,5.40380014 Z M100.173409,9.39231929 C99.2046141,9.00633357 98.2358191,8.62034784 98.3649917,7.84837639 C98.4295781,7.20506685 99.0108551,7.01207399 99.7213048,7.01207399 C100.625514,7.01207399 101.788068,7.39805972 102.498517,7.71971449 C102.821449,7.84837639 103.144381,7.71971449 103.273553,7.39805972 L103.984003,5.33946919 C104.048589,5.14647632 103.984003,4.95348346 103.85483,4.82482155 C102.756863,3.98851915 101.271377,3.66686438 99.7858912,3.66686438 C97.1378513,3.66686438 94.4898115,4.95348346 94.1668798,7.9770383 C93.9085345,10.2929526 95.8461246,11.193586 97.5899557,12.0298884 C98.4295781,12.4158741 99.2692005,12.8018599 99.1400278,13.5095004 C99.0754414,14.2171408 98.4941644,14.3458028 97.7837147,14.3458028 C96.7503333,14.3458028 95.2002612,13.959817 94.2960525,13.6381623 C94.0377071,13.5738313 93.7793618,13.6381623 93.7147754,13.8954861 L93.0043257,16.0827385 C92.9397394,16.3400623 93.0043257,16.6617171 93.2626711,16.7260481 C94.2314661,17.1763647 95.9107109,17.5623505 97.3961967,17.5623505 C101.206791,17.5623505 103.144381,15.9540766 103.467312,13.1235146 C103.661071,10.8076003 101.788068,10.0356288 100.173409,9.39231929 Z M23.0573224,3.60253343 C20.9259733,3.60253343 18.6008651,4.18151201 17.1153794,4.7604906 C16.5341024,5.01781442 16.1465843,5.33946919 16.081998,5.78978587 L14.7256849,16.6617171 C14.6610986,16.9190409 14.9194439,17.0477028 15.1777893,17.0477028 L18.6008651,17.0477028 C18.8592105,17.0477028 19.0529695,16.9833719 19.0529695,16.7260481 L20.2155236,7.33372876 C20.2155236,7.1407359 20.3446963,7.07640495 20.4738689,7.01207399 C20.9905596,6.81908113 21.636423,6.75475018 22.1531137,6.75475018 C22.9927361,6.75475018 23.5740131,7.20506685 23.3802541,8.62034784 L22.411459,16.5973861 C22.411459,16.85471 22.6052181,16.9833719 22.8635634,16.9833719 L26.2866393,16.9833719 C26.5449846,16.9833719 26.6741573,16.9190409 26.7387436,16.6617171 L27.772125,8.23436212 C28.2242294,4.31017392 25.7699486,3.60253343 23.0573224,3.60253343 Z M43.9187094,10.3572836 C43.660364,12.7375289 42.6269826,14.1528099 40.9477379,14.1528099 C40.6893925,14.1528099 40.4956335,14.1528099 40.2372881,14.0884789 C39.9789428,14.024148 39.8497701,13.8311551 39.8497701,13.5738313 L40.5602198,7.65538353 C40.6248062,7.1407359 41.0123242,6.94774304 41.4644286,6.88341208 L42.0457056,6.88341208 C43.5957777,6.94774304 44.1770547,8.17003117 43.9187094,10.3572836 Z M42.7561553,3.66686438 C40.9477379,3.66686438 38.3642844,4.18151201 37.524662,4.43883583 C36.6850396,4.7604906 36.5558669,5.33946919 36.4912806,6.04710968 L34.4891041,22.0011863 C34.4245178,22.2585101 34.6828631,22.5801649 34.9412085,22.5801649 L38.3642844,22.5801649 C38.6226297,22.5801649 38.8163887,22.387172 38.8163887,22.1298482 L39.3330794,17.9483362 C39.3976658,17.6266814 39.6560111,17.4336885 39.9789428,17.4980195 C40.3664608,17.5623505 40.7539788,17.5623505 41.1414969,17.5623505 C46.0500585,17.5623505 47.9230623,14.1528099 48.3751666,10.3572836 C48.9564437,5.01781442 45.9854722,3.66686438 42.7561553,3.66686438 Z M63.6821286,13.2521765 C63.6175423,13.7668242 63.5529559,14.0884789 63.1008516,14.2171408 L63.0362652,14.2171408 C62.7779199,14.2814718 62.5195745,14.2814718 62.3258155,14.2814718 C60.9049161,14.2814718 60.5819844,12.6731979 60.7757434,11.0005931 C61.0340888,9.07066452 61.6799521,6.94774304 63.5529559,6.94774304 C63.7467149,6.94774304 63.8758876,6.94774304 64.0050603,7.01207399 C64.2634056,7.07640495 64.3925783,7.26939781 64.327992,7.52672162 L63.6821286,13.2521765 Z M68.9136219,5.72545491 C68.9782083,5.27513823 68.8490356,4.82482155 68.3969312,4.63182869 C66.8468591,3.98851915 65.4259597,3.73119534 64.1988193,3.73119534 C58.9027396,3.73119534 56.8359768,7.26939781 56.3838725,10.8076003 C55.9317681,14.3458028 56.7713905,17.5623505 60.8403298,17.5623505 C61.6799521,17.5623505 62.5841609,17.3693576 63.2946106,16.9190409 C63.6175423,16.7260481 64.0050603,16.85471 64.134233,17.2406957 C64.1988193,17.4336885 64.3925783,17.6266814 64.5863373,17.6266814 L67.4281362,17.6266814 C67.7510678,17.6266814 68.0094132,17.3050266 67.9448269,16.9833719 C67.8156542,15.8897457 67.8802405,14.7317885 68.0094132,13.6381623 L68.9136219,5.72545491 Z M88.0311778,6.62608827 C88.7416275,6.62608827 89.3229045,7.01207399 89.1937318,7.71971449 C88.9999728,9.32798834 87.1915554,9.97129788 85.6414833,9.97129788 L85.1247926,9.97129788 C84.7372746,9.90696692 84.5435155,9.58531215 84.6726882,9.19932643 C85.1893789,7.78404544 86.351933,6.62608827 88.0311778,6.62608827 Z M87.9020051,14.3458028 C86.2873467,14.3458028 84.7372746,13.7668242 84.4789292,12.4158741 C84.4143429,12.2228813 84.5435155,12.0942194 84.7372746,12.0942194 C85.3831379,12.608867 86.0935876,12.544536 86.8040374,12.544536 C89.5812499,12.544536 92.487635,10.9362622 92.8751531,7.71971449 C93.1980847,4.95348346 91.2604946,3.66686438 88.3541094,3.66686438 C83.1872025,3.66686438 80.8620943,7.26939781 80.40999,11.0005931 C79.9578856,14.6031266 81.572544,17.6266814 86.2873467,17.6266814 C88.4832821,17.6266814 90.2271132,17.2406957 91.131322,16.9833719 C91.3896673,16.9190409 91.51884,16.7260481 91.51884,16.4687242 L91.51884,14.4101337 C91.51884,14.0884789 91.2604946,13.8954861 90.9375629,13.959817 C90.0333542,14.1528099 88.9353865,14.3458028 87.9020051,14.3458028 Z M79.8932993,7.07640495 C80.2808173,6.3044335 80.6683353,5.66112396 81.1204397,5.08214537 C81.3141987,4.82482155 81.3141987,4.43883583 80.991267,4.31017392 C80.1516446,3.98851915 78.5369862,3.60253343 77.1160868,3.60253343 C73.4346655,3.60253343 70.1407623,5.46813109 69.494899,10.5502765 C68.9136219,15.5037599 71.6908344,17.4980195 75.243083,17.4980195 C76.3410507,17.4980195 77.3098458,17.3693576 78.3432272,17.1120338 L78.4078135,17.1120338 C78.9890905,16.9833719 79.4411949,16.5330552 79.4411949,15.8897457 L79.5057812,14.4101337 C79.5057812,14.0884789 79.2474359,13.8954861 78.9245042,13.959817 C77.8911228,14.2171408 77.0515004,14.3458028 76.3410507,14.3458028 C74.5326333,14.3458028 73.4346655,13.5738313 73.8221836,10.6146074 C74.2097016,7.71971449 75.3722556,6.94774304 77.1806731,6.94774304 C77.7619501,6.94774304 78.8599179,7.20506685 79.3766086,7.33372876 C79.5703676,7.39805972 79.7641266,7.26939781 79.8932993,7.07640495 Z M54.769214,14.2171408 C53.994178,14.2171408 53.4774873,13.8954861 53.60666,12.8018599 L55.0921457,0.771971449 C55.1567321,0.514647632 54.8983867,0.385985724 54.6400414,0.385985724 L51.1523792,0.385985724 C50.8940338,0.385985724 50.7648611,0.450316678 50.7002748,0.643309541 L49.1502027,13.0591837 C48.827271,15.7610837 49.4731344,17.4980195 52.5086922,17.4980195 C52.8962103,17.4980195 54.1233507,17.3693576 55.4150774,16.85471 C55.7380091,16.7260481 55.8671818,16.4043933 55.7380091,16.0827385 C55.4796638,15.5680909 55.2859047,14.9891123 55.1567321,14.3458028 C55.1567321,14.2171408 55.0275594,14.1528099 54.8983867,14.1528099 C54.8338004,14.2171408 54.769214,14.2171408 54.769214,14.2171408 Z M10.4629866,0.964964311 C10.527573,0.707640495 10.721332,0.450316678 11.0442637,0.450316678 L14.4027532,0.450316678 C14.7256849,0.450316678 14.9840303,0.707640495 14.9840303,1.09362622 L14.9194439,1.41528099 L13.6923035,11.0005931 C13.1756128,15.375098 11.302609,17.5623505 6.26487472,17.5623505 C1.5500721,17.5623505 -0.0645863373,15.5037599 0.516690699,10.9362622 L1.74383111,1.02929526 L1.74383111,0.900633357 C1.80841744,0.643309541 2.00217646,0.450316678 2.32510814,0.450316678 L5.81277036,0.450316678 C6.07111571,0.450316678 6.26487472,0.643309541 6.26487472,0.900633357 L6.26487472,1.02929526 L5.03773431,10.8076003 C4.77938896,12.8018599 4.77938896,14.024148 6.71697908,14.024148 C8.58998286,14.024148 8.91291455,12.9305218 9.23584624,10.8076003 L10.4629866,1.28661908 L10.4629866,0.964964311 Z M30.7430966,0.900633357 L30.4201649,3.40954056 C30.4201649,3.66686438 30.6139239,3.9241882 30.8722692,3.9241882 L34.3599315,3.9241882 C34.6182768,3.9241882 34.8120358,3.73119534 34.8120358,3.53820247 L35.1349675,1.02929526 C35.1995538,0.771971449 34.9412085,0.450316678 34.6828631,0.450316678 L31.1952009,0.450316678 C30.9368556,0.450316678 30.7430966,0.707640495 30.7430966,0.900633357 Z" transform="translate(30.38 8.363)"/>
  </g>
</svg>
