<svg xmlns="http://www.w3.org/2000/svg" xmlns:xlink="http://www.w3.org/1999/xlink" width="126" height="54" viewBox="0 0 126 54">
  <defs>
    <polygon id="logo-barkyn-a" points="0 32.33 0 .133 25.156 .133 25.156 32.33"/>
  </defs>
  <g fill="none" fill-rule="evenodd" transform="translate(.339 13.034)">
    <path fill="#CBCBCB" d="M45.2153226,21.7028362 C48.7201937,21.7028362 49.6067686,20.9981986 49.6067686,19.2656193 C49.6067686,17.640808 48.380478,16.8615618 46.1764693,16.8615618 L44.2707474,16.8615618 C43.9393175,16.8615618 43.6493164,17.1434168 43.6493164,17.4915906 L43.6493164,21.0728073 C43.6493164,21.4209811 43.9310318,21.7028362 44.2707474,21.7028362 L45.2153226,21.7028362 Z M45.8781824,13.910374 C47.6347608,13.910374 48.8279084,13.2471857 48.8279084,11.6969831 C48.8279084,10.2048095 47.8999047,9.54162124 44.9501787,9.54162124 L44.2707474,9.54162124 C43.9393175,9.54162124 43.6493164,9.87321538 43.6493164,10.2048095 L43.6493164,13.2637654 C43.6493164,13.6119393 43.9310318,13.8937943 44.2707474,13.8937943 L45.8864681,13.8937943 L45.8781824,13.910374 Z M39.4401568,6.42463637 C39.4235853,6.07646253 39.7053007,5.79460751 40.0450163,5.79460751 L45.0330361,5.79460751 C50.5844868,5.79460751 53.0536395,7.45257819 53.0536395,10.7685195 C53.0536395,12.7580844 51.9102063,14.0015624 50.1536279,14.6647506 C52.6227806,15.4108374 53.824214,17.0688081 53.824214,19.3899671 C53.824214,23.0375026 51.0319171,25.275763 45.1407509,25.275763 L40.0450163,25.275763 C39.7135864,25.275763 39.4235853,24.9441688 39.4235853,24.6125747 L39.4235853,6.37489725 L39.4401568,6.42463637 Z M63.3031088,21.7194159 L63.3031088,20.6748943 C63.3031088,20.3598799 63.0876793,20.0946046 62.7811067,20.0448655 C62.4662483,19.9951264 62.1431042,19.9785467 61.8696745,19.9785467 C60.8339561,19.9785467 59.7982377,20.2935611 59.7982377,21.3215029 C59.7982377,22.1919375 60.5439549,22.6478794 61.4719586,22.6478794 C61.9691035,22.6478794 62.4662483,22.4986621 62.9633931,22.2914157 C63.1291081,22.1256187 63.294823,21.9598216 63.294823,21.711126 L63.3031088,21.7194159 Z M57.329085,24.7783718 C56.3347954,24.1151835 55.7547931,23.0375026 55.7547931,21.6282275 C55.7547931,20.1360539 56.4176528,19.0583729 57.329085,18.3951847 C58.3233747,17.6490979 59.5662368,17.4004023 60.9748138,17.4004023 C61.7205311,17.4004023 62.4662483,17.4833008 63.2119656,17.6490979 L63.2119656,17.1517066 C63.2119656,16.4885184 62.9633931,15.9911272 62.7148207,15.7424316 C62.3005334,15.3279389 61.6376736,15.1621418 60.6433839,15.1621418 C59.5662368,15.1621418 58.4890896,15.4108374 57.6605149,15.7424316 C57.2462276,15.9082286 56.7490827,15.5766345 56.7490827,15.1621418 L56.7490827,13.00678 C56.7490827,12.7580844 56.8319402,12.5093888 57.0805126,12.4264902 C58.0748023,11.929099 59.5662368,11.5975049 61.2233862,11.5975049 C62.9633931,11.5975049 64.5376851,12.0119976 65.6148322,12.8409829 C66.6091219,13.5870697 67.0234093,14.8305477 67.0234093,16.4885184 L67.0234093,20.9650392 C67.0234093,21.5453289 67.2719817,22.0427201 67.7691265,22.0427201 C68.1005564,22.0427201 68.4319863,22.2914157 68.4319863,22.6230099 L68.4319863,24.4467776 C68.4319863,24.6954732 68.2662714,24.9441688 67.9348415,25.0270674 C67.5205541,25.1928644 66.9405518,25.275763 66.443407,25.275763 C65.3662598,25.275763 64.3719702,24.9441688 63.6262529,24.198082 C62.7976782,24.7783718 61.4719586,25.275763 59.9805241,25.275763 C58.8205195,25.275763 57.8262299,24.9441688 56.9147977,24.3638791 L57.329085,24.7783718 Z M71.8291427,11.8462005 L74.571725,11.8462005 C74.9031549,11.8462005 75.193156,12.0948961 75.193156,12.5093888 L75.193156,13.6699682 L75.259442,13.6699682 C76.1708742,12.3435917 77.4137363,11.6804034 79.0377427,11.6804034 L79.3691726,11.6804034 C79.7006025,11.6804034 79.9491749,11.929099 79.9491749,12.2606932 L79.9491749,14.9217361 C79.9491749,15.2864896 79.6177451,15.5849244 79.2034577,15.5434751 L78.7891703,15.5434751 C77.4634508,15.5434751 76.3034462,15.9579678 75.392014,16.9527502 C75.3091565,17.0688081 75.226299,17.2263153 75.226299,17.3672428 L75.226299,24.4965167 C75.226299,24.8281109 74.9777266,25.0768065 74.6462967,25.0768065 L72.0860008,25.0768065 C71.7297137,25.0768065 71.456284,24.8281109 71.456284,24.4633573 L71.456284,12.6834757 C71.456284,12.3353018 71.7379994,12.0534468 72.0777151,12.0534468 L71.8291427,11.8462005 Z M83.1806164,4.70034687 L85.9977704,4.70034687 C86.3292003,4.70034687 86.5777727,4.94904247 86.5777727,5.29721631 L86.5777727,17.6490979 L90.9692187,12.1777946 C91.0520762,12.0119976 91.2177912,11.929099 91.3835061,11.929099 L94.3663751,11.929099 C94.8635199,11.929099 95.1949498,12.5093888 94.8635199,12.9238814 L91.1349337,17.4833008 C90.9692187,17.6490979 90.8863613,17.980692 91.0520762,18.2293876 L95.3606648,24.198082 C95.6092372,24.6125747 95.3606648,25.1928644 94.8635199,25.1928644 L91.6320785,25.1928644 C91.3835061,25.1928644 91.2177912,25.1099659 91.1349337,24.9441688 L86.4949152,18.3951847 L86.4120578,18.3951847 L86.4120578,24.5296762 C86.4120578,24.8612703 86.1634854,25.1099659 85.749198,25.1099659 L83.0149014,25.1099659 C82.6006141,25.1099659 82.3520416,24.7783718 82.3520416,24.4467776 L82.3520416,5.30550616 C82.3520416,4.97391203 82.6006141,4.70034687 83.0149014,4.70034687 L83.1806164,4.70034687 Z M113.589309,11.9954178 L116.323605,11.9954178 C116.655035,11.9954178 116.903608,12.2441134 116.903608,12.5757076 L116.903608,13.1559973 L116.986465,13.1559973 C117.980755,12.327012 119.389332,11.5809252 121.046481,11.5809252 C122.372201,11.5809252 123.615063,12.0783164 124.443638,12.9073017 C125.189355,13.7362871 125.603642,14.8968665 125.603642,16.8201125 L125.603642,24.4467776 C125.603642,24.7783718 125.272212,25.0270674 124.940782,25.0270674 L122.123628,25.0270674 C121.709341,25.0270674 121.460769,24.7783718 121.460769,24.3638791 L121.460769,17.4086921 C121.460769,16.4139097 121.295054,15.9165185 120.963624,15.5351852 C120.632194,15.1206926 120.135049,14.9548955 119.596475,14.9548955 C118.685043,14.9548955 117.790182,15.3693882 117.110751,15.8667794 C116.945036,15.9911272 116.862179,16.1817938 116.862179,16.3890401 L116.862179,24.3804588 C116.862179,24.7120529 116.54732,25.0436471 116.199319,25.0436471 L113.514737,25.0436471 C113.183307,25.0436471 112.851877,24.7949515 112.851877,24.4633573 L112.851877,12.6834757 C112.851877,12.3518815 113.10045,12.045157 113.456737,12.045157 L113.589309,11.9954178 Z M99.4538239,29.4704288 L101.906405,24.1400531 C101.989263,23.974256 101.989263,23.7835894 101.906405,23.6095024 L97.1006717,12.9155916 C96.8520993,12.5010989 97.1835292,12.0285773 97.5978165,12.0285773 L100.414971,12.0285773 C100.663543,12.0285773 100.912115,12.1943743 100.994973,12.4430699 L102.154977,15.3445186 C102.73498,16.8366922 103.314982,18.2459673 103.812127,19.5723438 L103.894984,19.5723438 L105.634991,15.2616201 L106.886139,12.4347801 C106.968997,12.1860845 107.217569,12.1031859 107.466141,12.1031859 L110.117581,12.1031859 C110.531868,12.1031859 110.863298,12.6005771 110.681011,13.0150698 L103.223839,30.0921678 C103.140981,30.3408634 102.90898,30.5066604 102.668694,30.5066604 L100.18297,30.5066604 C99.7686823,30.5066604 99.4372524,30.0092692 99.6858248,29.5947766 L99.4538239,29.4704288 Z"/>
    <mask id="logo-barkyn-b" fill="#fff">
      <use xlink:href="#logo-barkyn-a"/>
    </mask>
    <path fill="#CBCBCB" d="M22.4792322,17.5247501 C22.3383745,17.5247501 22.1975168,17.5744892 22.0980878,17.6739674 L21.3855136,18.3703151 C21.2197986,18.5692716 21.2197986,18.8925759 21.3855136,19.0998222 C23.1255205,21.0230682 23.6226653,23.7752995 22.7112331,26.1047483 C21.7169435,28.6746029 19.3969342,30.249675 16.6626377,30.249675 L2.81715406,30.249675 C2.40286669,30.249675 2.07143681,29.8351823 2.07143681,29.4206897 L2.07143681,2.89315883 C2.07143681,2.39576763 2.40286669,2.06417349 2.81715406,2.06417349 L16.5714944,2.06417349 C19.1400761,2.06417349 21.4849425,3.5563471 22.5538039,5.87750605 C23.7386658,8.53025913 23.2498067,11.4317078 21.2446559,13.4212726 L20.026651,14.6647506 L18.7009315,16.0740257 L13.2571956,21.7194159 C12.784908,22.2168071 12.1551912,22.4820824 11.5006171,22.4820824 C10.8377574,22.4820824 10.2328978,22.2333868 9.76061023,21.7525753 C8.79946355,20.6583146 8.7911778,19.0998222 9.76061023,18.1464891 L10.8874718,16.903011 C11.0697583,16.737214 11.5006171,16.2398228 11.5254744,16.1569242 L11.6083319,16.0740257 L11.5254744,15.9911272 L10.9454721,15.3279389 L9.86832494,14.1673594 C8.87403527,13.172577 8.87403527,11.5975049 9.86832494,10.5198239 C10.3654698,10.0224327 10.9454721,9.77373714 11.6083319,9.77373714 C12.2711916,9.77373714 12.9340514,10.0224327 13.3483388,10.5198239 L16.0826354,13.2554756 L17.4912124,14.6647506 C17.7397848,14.8305477 18.0712147,14.8305477 18.2369296,14.6647506 L18.9826469,13.9186638 C19.0655044,13.8357653 19.1483618,13.6699682 19.1483618,13.5041712 C19.1483618,13.3383741 19.1483618,13.172577 18.9826469,13.0896785 L18.4026446,12.5093888 L17.3254974,11.5146063 L14.7569158,8.9447518 C14.0111986,8.11576646 12.8511939,7.61837526 11.7740468,7.61837526 C10.6140422,7.61837526 9.53689505,8.03286793 8.62546286,8.77895473 C7.71403066,9.60794007 7.13402836,10.8514181 7.05117089,12.0948961 C6.96831341,13.4212726 7.46545825,14.6647506 8.37689044,15.5766345 L8.7911778,15.9082286 L8.37689044,16.3227213 C7.4571725,17.4086921 6.96002767,18.5692716 6.96002767,19.8127496 C6.96002767,21.0562276 7.4571725,22.2499665 8.31889021,23.1286909 C8.98174999,23.858198 9.97603965,24.3224298 11.0531868,24.4384878 L11.4840456,24.4965167 C12.7269077,24.4965167 13.8703408,23.9991255 14.7154871,23.1038214 L20.159223,17.5496196 L22.5620897,14.8968665 C25.0478139,12.327012 25.7935311,8.59657796 24.550669,5.36353514 C23.2000922,2.15536188 20.1343657,0.0828985338 16.5714944,0.0828985338 L1.83943588,0.0828985338 C0.828574722,0.165797068 0,0.994782406 0,2.07246335 L0,30.4237619 C0,31.4765733 0.828574722,32.3304282 1.86429312,32.3304282 L16.422351,32.3304282 C19.9023648,32.3304282 23.0509488,30.2828344 24.4015256,27.1244003 C25.7769596,23.9079372 25.1803858,20.3018509 22.8520908,17.698837 C22.7526619,17.5910689 22.6200899,17.5330399 22.4709465,17.5164602" mask="url(#logo-barkyn-b)"/>
  </g>
</svg>
