<svg xmlns="http://www.w3.org/2000/svg" width="137" height="54" viewBox="0 0 137 54">
  <g fill="#CBCBCB" transform="translate(.768 3.724)">
    <g transform="translate(53.56 19.875)">
      <path d="M2.81978534,14.1040021 L7.73427887,14.1040021 C9.64772197,14.1040021 10.5540475,13.1973097 10.5540475,11.2832184 L10.5540475,0 L7.65371382,0 L7.65371382,11.0413724 C7.65371382,11.343659 7.5530054,11.4443654 7.25088854,11.4443654 L3.30318404,11.4443654 C3.00105881,11.4443654 2.90035039,11.343659 2.90035039,11.0413724 L2.90035039,0 L0,0 L0,11.2832184 C0,13.1973097 0.906358975,14.1040021 2.81978534,14.1040021 Z" transform="translate(.502 .074)"/>
      <path d="M3.82449276,14.1040021 L6.72306063,14.1040021 L6.72306063,2.61931228 L10.5475199,2.61931228 L10.5475199,0 L1.3148e-14,0 L1.3148e-14,2.61931228 L3.82449276,2.61931228 L3.82449276,14.1040021 Z M22.6114404,8.96613414 L25.006801,14.1040021 L21.8867984,14.1040021 L19.5518596,9.12728112 L17.2169207,9.12728112 L17.2169207,14.1040021 L14.3183529,14.1040021 L14.3183529,0 L21.7459539,0 C23.658192,0 24.5640153,0.906684054 24.5640153,2.82079204 L24.5640153,6.22589885 C24.5640153,7.81762917 23.9399646,8.72428811 22.6114404,8.96613414 Z M17.2169207,6.54827651 L21.2628314,6.54827651 C21.5647725,6.54827651 21.6654475,6.44753663 21.6654475,6.14530861 L21.6654475,3.02228018 C21.6654475,2.72005216 21.5647725,2.61931228 21.2628314,2.61931228 L17.2169207,2.61931228 L17.2169207,6.54827651 Z M31.7567082,14.1040021 L36.6681891,14.1040021 C38.5804271,14.1040021 39.4862505,13.1973097 39.4862505,11.2832184 L39.4862505,0 L36.5876826,0 L36.5876826,11.0413724 C36.5876826,11.343659 36.4870076,11.4443654 36.1850665,11.4443654 L32.2398308,11.4443654 C31.9378897,11.4443654 31.8372147,11.343659 31.8372147,11.0413724 L31.8372147,0 L28.9386468,0 L28.9386468,11.2832184 C28.9386468,13.1973097 29.8444702,14.1040021 31.7567082,14.1040021 Z M46.5984369,14.1040021 L51.2280613,14.1040021 C53.1402994,14.1040021 54.0461227,13.1973097 54.0461227,11.2832184 L54.0461227,8.94595938 C54.0461227,7.1325829 52.9189484,6.42738698 51.1475549,6.04456036 L47.4035853,5.23861619 C46.8802095,5.11772666 46.7191966,4.99683712 46.7191966,4.55356992 L46.7191966,3.02228018 C46.7191966,2.72005216 46.8198715,2.61931228 47.1218127,2.61931228 L50.5839259,2.61931228 C50.885867,2.61931228 50.9865419,2.72005216 50.9865419,3.02228018 L50.9865419,4.43268039 L53.8046033,4.43268039 L53.8046033,2.82079204 C53.8046033,0.906684054 52.8987799,0 50.9865419,0 L46.6386901,0 C44.7264521,0 43.8206287,0.906684054 43.8206287,2.82079204 L43.8206287,4.99683712 C43.8206287,6.81020523 44.9478868,7.51540115 46.7191966,7.89822777 L50.4631661,8.70419706 C50.9865419,8.82507822 51.1475549,8.94595938 51.1475549,9.38921821 L51.1475549,11.0817219 C51.1475549,11.3839248 51.0469636,11.4846312 50.7450225,11.4846312 L47.0010529,11.4846312 C46.6991118,11.4846312 46.5984369,11.3839248 46.5984369,11.0817219 L46.5984369,9.51009937 L43.7803755,9.51009937 L43.7803755,11.2832184 C43.7803755,13.1973097 44.6861989,14.1040021 46.5984369,14.1040021 Z M61.2187309,14.1040021 L64.1172987,14.1040021 L64.1172987,2.61931228 L67.9417748,2.61931228 L67.9417748,0 L57.3942548,0 L57.3942548,2.61931228 L61.2187309,2.61931228 L61.2187309,14.1040021 Z" transform="translate(14.645 .074)"/>
    </g>
    <path d="M7.49521983,45.6756669 C0.413897851,42.5722691 -4.22034695,25.8567651 5.6835647,11.615809 C15.5874596,-2.62523914 29.2191642,-2.28914933 36.4673413,4.69203912 C43.7155184,11.6732359 45.760818,23.9163881 37.1354112,35.0111692 C28.5100879,46.1059502 14.5765259,48.7791484 7.49521983,45.6756669 Z M9.56980978,44.9849533 C16.3000507,47.4849498 23.5983561,45.4082885 34.2455467,32.4551688 C44.8926536,19.5020491 41.3268528,10.6630746 36.096024,5.98295617 C30.8651953,1.30284611 17.7087467,2.23115316 7.80485175,16.4721511 C-2.0990599,30.7131909 2.83950189,42.4850404 9.56980978,44.9849533 Z" opacity=".6" transform="translate(.837)"/>
    <path d="M20.3480536,43.4428813 C17.1430255,44.685178 14.2296451,44.7753366 11.5195394,44.1870874 C9.82706228,44.0197456 8.36078998,43.644043 7.23886278,43.0806564 C1.34854205,40.1224164 -4.60882836,27.2150876 5.2950833,12.9740478 C15.1989866,-1.26693336 28.3370241,-3.00458331 35.5852849,3.97660514 C42.833462,10.9578271 44.0752869,23.0477012 36.2931059,33.4350261 C32.2362323,38.8499832 26.1141416,42.0443767 20.3480536,43.4428813 Z M20.3480536,43.4428813 C24.4705374,41.8448893 29.0755581,38.3408424 34.3511591,31.9225885 C44.9983498,18.9694688 40.0613445,8.57394007 36.020204,4.84653931 C29.44244,-1.22064022 16.0168554,1.75508732 6.55604736,15.4732073 C-2.90479415,29.1912937 2.32773344,40.9596273 9.05798275,43.4595401 C9.86078797,43.7577248 10.6804142,44.0049285 11.5195394,44.1870874 C14.0807667,44.4402346 17.1600139,44.216052 20.3480536,43.4428813 Z" opacity=".2" transform="translate(1.59 1.666)"/>
    <path d="M16.4223168,38.9710318 C4.03523227,35.4427919 -1.62119288,22.2064721 0.401928998,13.5441314 C2.42505255,4.88172377 16.7279401,-3.75440648 27.879677,1.70834214 C39.031414,7.17109075 45.1701583,18.0694734 42.128319,26.7737542 C39.086396,35.478035 28.8093511,42.4991879 16.4223168,38.9710318 Z M17.6957753,35.4427919 C28.4221334,38.6092254 38.1296912,33.8812986 41.2054236,26.1311754 C44.2812396,18.3810522 36.7398248,8.97023607 26.6625396,5.76818283 C16.5851708,2.56616308 3.29143445,6.57580126 1.24523098,13.5441314 C-0.800975831,20.5124616 6.96941714,32.2764422 17.6957753,35.4427919 Z" opacity=".8" transform="translate(0 5.684)"/>
    <path d="M0.620779962,15.5145613 C1.74434065,22.5935597 8.91933384,31.8480842 17.7468271,34.4538936 C28.2014549,37.5401303 37.1674661,32.1443435 40.8012204,25.1731671 C37.7574564,33.8756062 24.9391015,38.6974586 15.8422045,35.1440212 C7.70130936,31.9640263 0.579819755,23.4722084 0.620779962,15.5145613 Z M6.23804977,5.42323621 C12.3215107,0.700124602 22.1671514,-1.79878535 29.0530494,1.51001834 C36.3418145,5.01239932 40.887836,11.4065272 41.604193,17.9974805 C40.1846178,12.0308567 34.3220392,5.85661694 26.9640653,3.429643 C20.1652014,1.18713002 11.7265829,2.34452529 6.23804977,5.42323621 Z" opacity=".2" transform="translate(.132 8.129)"/>
    <g transform="translate(16.521 15.905)">
      <polygon points="3.706 15.483 6.873 15.483 6.873 2.875 10.579 2.875 10.579 0 0 0 0 2.875 3.706 2.875" transform="translate(.049 .184)"/>
      <path d="M2.81704042,15.2972431 L7.72673871,15.2972431 C9.63826539,15.2972431 10.543754,14.3880393 10.543754,12.4685068 L10.543754,4.91142e-16 L7.761159,4.91142e-16 L7.761159,12.3410123 C7.761159,12.644136 7.66055101,12.7450936 7.35872704,12.7450936 L3.18505209,12.7450936 C2.88321975,12.7450936 2.78261176,12.644136 2.78261176,12.3410123 L2.78261176,4.91142e-16 L9.51472e-18,4.91142e-16 L9.51472e-18,12.4685068 C9.51472e-18,14.3880393 0.905480266,15.2972431 2.81704042,15.2972431 Z" transform="translate(.049 3.884)"/>
    </g>
  </g>
</svg>
