<svg xmlns="http://www.w3.org/2000/svg" width="115" height="54" viewBox="0 0 115 54">
  <path fill="#CBCBCB" fill-rule="evenodd" d="M53.0738728 35.3142405L53.0738728 20.0706835 49.8039185 20.0706835 49.8039185 26.1681063 43.0124751 26.1681063 43.0124751 20.0706835 39.769547 20.0706835 39.769547 35.3142405 43.0124751 35.3142405 43.0124751 28.9627586 49.8039185 28.9627586 49.8039185 35.3142407 53.0738728 35.3142405 53.0738728 35.3142405zM62.3765422 20.0706835C57.7581957 20.0706835 54.5830825 22.9574061 54.5830825 27.692462 54.5830825 32.4275179 57.7581957 35.3142405 62.3765422 35.3142405 66.9948886 35.3142405 70.1700018 32.4275179 70.1700018 27.692462 70.1700018 22.9574061 66.9948886 20.0706835 62.3765422 20.0706835L62.3765422 20.0706835zM67.1598296 27.7025571C67.1598296 30.3272755 65.3191528 32.2655291 62.5064332 32.2655291 59.7557588 32.2655291 57.8530367 30.3474656 57.8530367 27.7025571 57.8530367 25.1384091 59.7557588 23.1193949 62.5064332 23.1193949 65.3191528 23.1193949 67.1598296 25.1182189 67.1598296 27.7025571L67.1598296 27.7025571 67.1598296 27.7025571zM71.4359236 20.0706835L71.4359236 35.3142405 81.7488562 35.3142405 82.0003912 32.1384995 74.5801104 32.1384995 74.5801104 20.0706835 71.4359236 20.0706835 71.4359236 20.0706835zM94.0740684 32.1384995L86.5280201 32.1384995 86.5280201 28.9627584 93.3194636 28.9627584 93.3194636 26.0410767 86.5280201 26.0410767 86.5280201 23.2464245 94.1998359 23.2464245 94.1998359 22.9923652 94.1998359 20.0706835 83.2580659 20.0706835 83.2580659 35.3142405 94.0740684 35.3142405 94.0740684 32.1384995 94.0740684 32.1384995zM102.374722 35.3142405L102.374722 20.0706835 96.3378829 20.0706835 96.5894178 23.2464245 98.6016974 23.2464245 98.6016974 35.3142405 102.374722 35.3142405 102.374722 35.3142405zM115.337817 25.6499652C115.541199 22.568613 113.230987 20.0706835 110.1707 20.0706835L109.417101 20.0706835C106.500134 20.0706835 104.135466 22.4604231 104.135466 25.4047701L104.135466 25.6600568C104.135466 28.3259669 106.273732 30.4871141 108.915934 30.4871141L109.337209 30.4871141 106.147746 35.3142405 109.92077 35.3142405 114.336665 28.942509C114.815131 28.2521271 115.24809 27.0093724 115.303297 26.1729678L115.337817 25.6499652 115.337817 25.6499652zM109.732119 27.692462C111.017119 27.692462 112.058817 26.6687461 112.058817 25.4059284 112.058817 24.1431108 111.017119 23.1193949 109.732119 23.1193949 108.447119 23.1193949 107.40542 24.1431108 107.40542 25.4059284 107.40542 26.6687461 108.447119 27.692462 109.732119 27.692462L109.732119 27.692462zM27.7479831 14.6538556C31.1911221 17.7064157 33.368306 22.1837881 33.368306 27.1842872 33.368306 36.1997281 25.9133749 43.6029247 16.8549344 43.6029247 7.58345512 43.6029247.0858412898 36.2418671.0858412898 27.1842872.0858412898 17.9148995 7.54077239 10.5117029 16.8549344 10.5117029 20.7831178 10.5117029 24.3968029 11.8989095 27.2356323 14.2177866L35.3308495 3.02973115 35.3308495 1.5300192C35.3308495 1.5300192 35.3119844.994970344 35.7096612.556972137 36.2454306-.0324454025 36.669267.000328245187 36.7462366.000328245187 36.8325131.000328245187 36.9306118.0574915842 36.9572745.301388497 37.0080845.76199798 36.8050958 2.34859821 36.2967437 2.91159359 36.0469695 3.18851821 32.5765419 7.9208805 29.2474769 12.5251969L27.7479831 14.6538556zM25.8712144 17.3516688L22.3544134 22.3082578C22.2837321 22.5033753 22.2175784 22.7236447 22.2175784 22.8666801 22.2175784 23.1738378 22.1240074 23.9924168 21.8659325 24.1974426 21.6078577 24.4019603 21.8659325 24.812012 21.8659325 24.812012 21.8659325 24.812012 24.8599529 28.446076 25.7234724 31.5161284 25.7234724 31.5161284 26.1302044 32.3890761 26.4348132 32.7981116 26.5693712 32.978667 26.7431246 34.2606651 26.8455521 35.5182013 28.8203557 33.2269977 30.0184994 30.2638083 30.0184994 27.0485652 30.0184994 23.2226728 28.4230666 19.7797079 25.8712144 17.3516688zM25.3182088 16.8541295C23.0169183 14.897061 20.0452695 13.7192014 16.8063384 13.7192014 9.32034571 13.7192014 3.35579554 19.6382205 3.35579554 27.0485652 3.35579554 34.0044221 8.94347628 39.7291434 16.0320183 40.1200752 16.4882414 38.1217836 17.0248033 35.2636039 16.6795336 35.0424713 16.1206229 34.6842477 15.7141424 33.1484593 15.6633324 32.9439416 15.6125223 32.7391698 15.4600922 32.1235842 14.0374105 31.510031 12.6147289 30.8959697 11.2428573 29.8185043 10.8869354 29.3065748 10.5315165 28.7951535 10.7863214 27.9720014 10.8361253 27.7657053 10.8861808 27.5599172 11.4966561 26.9865054 11.7509579 26.7306677 12.0050082 26.47483 11.6998963 26.3485626 11.6998963 26.3485626L10.7853153 26.3485626C10.5855965 26.3485626 10.1247845 25.9888146 10.1247845 25.9888146L9.01526387 25.180398 8.70210286 25.1173913 8.0415721 25.6801326C7.99201972 25.6908031 7.94447962 25.6958843 7.89920333 25.6958843 7.29426179 25.6958843 7.06284964 24.8102336 7.06284964 24.8102336 7.06284964 24.8102336 7.53372306 24.2985582 7.63534317 24.0429746 7.73696329 23.7871369 7.68615323 23.3265274 7.33023129 22.9683038 6.97481241 22.6103343 6.89507584 22.227721 7.07643253 21.9373312 7.62553331 21.0575239 9.4222474 20.38071 9.4222474 20.38071 9.4222474 20.38071 9.67026086 20.2460586 10.0571216 20.2460586 10.3931723 20.2460586 10.83361 20.3479363 11.3064957 20.7285171 12.3224453 21.5470962 12.7903003 22.6418376 13.738587 22.9830392 13.9730176 23.0666247 14.1654418 23.1016849 14.3266757 23.1016849 14.8196842 23.1016849 15.0216668 22.780554 15.2259131 22.5752741 15.4970678 22.3021604 17.3247207 20.5293347 17.3247207 20.5293347 17.3247207 20.5293347 17.8220053 20.1515485 18.4282045 20.1515485 18.5964814 20.1515485 18.7730589 20.1805113 18.9496364 20.2546966 19.7354316 20.5862439 21.1005117 21.3613788 21.7052017 21.8440915L25.3182088 16.8541295z" transform="translate(0 4.966)"/>
</svg>
