<svg xmlns="http://www.w3.org/2000/svg" width="117" height="54" viewBox="0 0 117 54">
  <path fill="#CBCBCB" d="M107.814133,0.200140746 L104.224641,0.200140746 L104.224641,20.2142153 L107.814133,20.2142153 L107.814133,11.5080929 C107.814133,9.30654469 108.978293,7.80548909 110.91856,7.80548909 C112.664799,7.80548909 113.246879,8.80619282 113.246879,10.6074595 L113.246879,20.114145 L116.836372,20.114145 L116.836372,10.3072484 C116.836372,6.90485574 115.284159,4.8033779 112.082719,4.8033779 C110.33648,4.70330753 108.59024,5.70401126 107.814133,7.30513723 L107.814133,0.200140746 Z M95.2024022,10.8076003 C94.232269,10.6074595 93.5531758,10.207178 93.5531758,9.20647431 C93.5531758,8.20577058 94.4262956,7.60534835 95.6874688,7.60534835 C96.7546153,7.50527797 97.7247484,8.30584096 97.9187751,9.40661506 C97.9187751,9.50668543 97.9187751,9.60675581 97.9187751,9.70682618 L101.508268,9.70682618 C101.314241,6.40450387 98.9859216,4.70330753 95.7844821,4.70330753 C92.1949893,4.70330753 90.1577097,6.70471499 90.1577097,9.30654469 C90.1577097,11.7082336 91.3218695,13.0091485 93.8442157,13.6095707 L96.366562,14.209993 C97.6277351,14.5102041 98.500855,14.9104856 98.500855,16.0112597 C98.500855,17.1120338 97.3366952,17.712456 95.9785087,17.712456 C94.7173356,17.9125968 93.5531758,17.0119634 93.3591492,15.6109782 C93.3591492,15.5109078 93.3591492,15.5109078 93.3591492,15.4108374 L89.7696564,15.4108374 C89.963683,18.7131597 92.097976,20.5144265 95.9785087,20.5144265 C99.8590414,20.5144265 101.993334,18.4129486 101.993334,15.8111189 C101.993334,13.2092892 100.344108,11.9083744 98.1128017,11.4080225 L95.2024022,10.8076003 Z M82.7846976,10.9076707 L78.8071515,11.3079521 C75.7997387,11.6081633 74.053499,13.6095707 74.053499,16.0112597 C73.9564857,18.513019 75.896752,20.6144968 78.322085,20.6144968 C78.4190983,20.6144968 78.5161116,20.6144968 78.6131249,20.6144968 C80.4563779,20.7145672 82.2026176,19.7138635 82.9787242,17.9125968 L83.0757375,17.9125968 L83.0757375,20.2142153 L88.7025099,20.2142153 L88.7025099,17.3121745 L86.277177,17.3121745 L86.277177,10.0070373 C86.277177,6.60464462 84.142884,4.90344828 80.6504046,4.90344828 C77.1579251,4.90344828 74.6355789,6.60464462 74.5385656,9.90696692 L78.1280583,9.90696692 C78.1280583,8.5059817 79.1952048,7.80548909 80.5533913,7.80548909 C81.6205377,7.60534835 82.6876842,8.40591133 82.7846976,9.50668543 C82.7846976,9.70682618 82.7846976,9.80689655 82.7846976,10.0070373 L82.7846976,10.9076707 Z M79.874298,17.712456 C78.6131249,17.712456 77.740005,17.2121042 77.740005,16.4115412 L77.740005,15.0105559 C77.740005,14.4101337 77.9340317,14.1099226 78.5161116,14.0098522 L82.7846976,13.6095707 L82.7846976,14.209993 C82.9787242,15.9111893 81.7175511,17.4122449 80.0683247,17.6123856 C79.9713113,17.6123856 79.9713113,17.6123856 79.874298,17.712456 Z M71.628166,20.114145 L71.628166,0.100070373 L68.0386733,0.100070373 L68.0386733,7.10499648 C67.1655534,5.60394089 65.516327,4.70330753 63.7700873,4.70330753 C59.8895546,4.70330753 58.0463016,8.20577058 58.0463016,12.608867 C58.0463016,17.0119634 59.986568,20.4143561 63.8671007,20.4143561 C65.6133404,20.5144265 67.1655534,19.5137227 68.0386733,18.0126671 L68.0386733,20.0140746 L71.628166,20.114145 Z M68.0386733,13.7096411 C68.0386733,16.0112597 67.0685401,17.6123856 64.7402205,17.6123856 C63.1880074,17.712456 61.9268343,16.6116819 61.7328077,15.0105559 C61.7328077,14.9104856 61.7328077,14.8104152 61.7328077,14.7103448 L61.7328077,10.5073892 C61.7328077,8.90626319 62.8969675,7.60534835 64.3521672,7.60534835 C64.4491806,7.60534835 64.5461939,7.60534835 64.6432072,7.60534835 C66.8745135,7.60534835 67.94166,9.10640394 67.94166,11.5080929 L67.94166,13.7096411 L68.0386733,13.7096411 Z M52.9045958,20.114145 L54.7478488,20.114145 L54.7478488,10.1071077 C54.7478488,6.3044335 52.8075825,4.70330753 49.9941963,4.70330753 C48.0539299,4.60323716 46.2106769,5.80408163 45.5315837,7.70541872 L45.5315837,0.100070373 L43.6883306,0.100070373 L43.6883306,20.114145 L45.5315837,20.114145 L45.5315837,11.4080225 C45.5315837,8.5059817 47.2778234,6.40450387 49.606143,6.40450387 C51.9344626,6.40450387 52.8075825,7.90555947 52.8075825,10.4073188 L52.9045958,20.114145 Z M34.2780388,11.4080225 C32.8228391,11.1078114 31.9497192,10.5073892 31.9497192,9.00633357 C31.9497192,7.50527797 33.2108923,6.50457424 35.1511587,6.50457424 C37.091425,6.50457424 38.4496115,7.4052076 38.5466248,9.50668543 L40.3898778,9.50668543 C40.2928645,6.20436312 37.7705183,4.8033779 35.1511587,4.8033779 C32.1437458,4.8033779 30.1064662,6.60464462 30.1064662,9.00633357 C30.1064662,11.4080225 31.4646526,12.608867 33.6959589,13.1092189 L36.1212919,13.6095707 C38.2555848,14.1099226 39.0316914,14.7103448 39.0316914,16.2114004 C39.0316914,17.9125968 37.382465,18.8132301 35.4421986,18.8132301 C33.5019323,18.8132301 31.7556926,17.712456 31.6586793,15.5109078 L29.8154262,15.5109078 C29.9124395,18.7131597 32.3377725,20.4143561 35.4421986,20.4143561 C38.8376648,20.4143561 40.8749444,18.6130894 40.8749444,16.11133 C40.8749444,13.6095707 39.516758,12.4087262 36.8003851,11.808304 L34.2780388,11.4080225 Z M24.4796938,12.9090781 L24.4796938,13.6095707 C24.4796938,16.7117523 22.8304674,18.8132301 20.3081211,18.8132301 C18.4648681,18.8132301 17.3007083,18.1127375 17.3007083,16.5116115 L17.3007083,14.9104856 C17.3007083,14.0098522 17.5917482,13.5095004 18.4648681,13.40943 L24.4796938,12.9090781 Z M24.4796938,11.2078818 L18.9499347,11.7082336 C16.912655,11.7082336 15.1664153,13.5095004 15.2634286,15.6109782 C15.2634286,15.7110486 15.2634286,15.8111189 15.2634286,15.9111893 C15.2634286,17.1120338 15.6514819,18.2128079 16.4275884,19.1134412 C17.3977216,20.0140746 18.6588947,20.5144265 19.9200678,20.4143561 C21.9573475,20.5144265 23.8976139,19.2135116 24.5767071,17.1120338 L24.6737204,17.1120338 L24.7707337,20.0140746 L28.4572398,20.0140746 L28.4572398,18.3128783 L26.3229468,18.3128783 L26.3229468,9.80689655 C26.3229468,6.3044335 24.1886538,4.70330753 21.0842277,4.70330753 C17.9798015,4.70330753 15.8455085,6.70471499 15.8455085,9.50668543 L17.6887615,9.50668543 C17.6887615,7.50527797 19.046948,6.50457424 21.0842277,6.50457424 C23.1215073,6.50457424 24.5767071,7.20506685 24.5767071,9.90696692 L24.4796938,11.2078818 Z M12.4500424,20.114145 L12.4500424,0.100070373 L10.6067894,0.100070373 L10.6067894,7.70541872 C9.73366952,5.80408163 7.89041649,4.70330753 5.85313682,4.8033779 C2.06961744,4.8033779 0.0323377725,8.00562984 0.0323377725,12.7089374 C0.0323377725,17.4122449 2.06961744,20.5144265 5.85313682,20.5144265 C7.89041649,20.6144968 9.73366952,19.4136524 10.6067894,17.6123856 L10.6067894,20.2142153 L12.4500424,20.114145 Z M10.6067894,13.9097818 C10.6067894,16.7117523 8.95756298,18.8132301 6.14417677,18.8132301 C4.00988379,19.0133709 2.16663076,17.4122449 2.06961744,15.2106967 C2.06961744,15.1106263 2.06961744,15.0105559 2.06961744,14.9104856 L2.06961744,10.4073188 C2.06961744,8.20577058 3.81585715,6.50457424 5.85313682,6.50457424 C5.95015014,6.50457424 6.04716345,6.50457424 6.14417677,6.50457424 C8.86054966,6.50457424 10.5097761,8.60605208 10.5097761,11.4080225 L10.6067894,13.9097818 Z" transform="translate(.005 18)"/>
</svg>
